
<svg xmlns="http://www.w3.org/2000/svg" version="1.1" width="500px" height="500px" style="shape-rendering:geometricPrecision; text-rendering:geometricPrecision; image-rendering:optimizeQuality; fill-rule:evenodd; clip-rule:evenodd" xmlns:xlink="http://www.w3.org/1999/xlink">
<circle cx="48" cy="48" r="48" fill="#000000" style="opacity:1"/>

<g><path style="opacity:1" fill="#fefefe" d="M -0.5,-0.5 C 166.167,-0.5 332.833,-0.5 499.5,-0.5C 499.5,166.167 499.5,332.833 499.5,499.5C 332.833,499.5 166.167,499.5 -0.5,499.5C -0.5,332.833 -0.5,166.167 -0.5,-0.5 Z"/></g>
<g><path style="opacity:1" fill="#151414" d="M 431.5,189.5 C 431.027,188.094 430.027,187.427 428.5,187.5C 431.873,184.474 435.039,181.141 438,177.5C 438.497,174.854 438.664,172.187 438.5,169.5C 435.482,169.335 432.482,169.502 429.5,170C 427.675,171.466 427.175,173.299 428,175.5C 430.476,175.768 432.976,176.102 435.5,176.5C 431.671,181.748 427.838,181.748 424,176.5C 421.358,167.852 416.358,160.852 409,155.5C 408.666,148.148 408,140.815 407,133.5C 397.121,129.365 393.121,132.698 395,143.5C 397.712,146.09 399.212,149.257 399.5,153C 397.925,158.983 395.925,164.816 393.5,170.5C 394.267,174.038 395.601,177.372 397.5,180.5C 396.635,181.583 395.635,181.749 394.5,181C 392.641,179.442 391.141,177.609 390,175.5C 388.18,178.753 388.013,182.087 389.5,185.5C 387.955,186.23 387.122,187.563 387,189.5C 386.781,188.062 386.281,186.729 385.5,185.5C 385.467,186.989 384.967,188.322 384,189.5C 382.127,188.911 380.46,189.578 379,191.5C 378.329,190.748 377.496,190.414 376.5,190.5C 379.438,188.066 382.271,185.399 385,182.5C 388.648,174.371 391.982,166.038 395,157.5C 395.667,155.167 395.667,152.833 395,150.5C 388.893,142.723 389.06,135.223 395.5,128C 406.161,125.504 411.827,129.67 412.5,140.5C 415.093,139.147 417.927,138.481 421,138.5C 427.644,138.643 431.31,141.976 432,148.5C 433.154,149.743 434.488,150.743 436,151.5C 437.137,155.107 438.804,158.44 441,161.5C 441.563,166.381 441.896,171.381 442,176.5C 439.773,181.89 436.273,186.224 431.5,189.5 Z"/></g>
<g><path style="opacity:1" fill="#cac2c2" d="M 429.5,160.5 C 432.187,160.336 434.854,160.503 437.5,161C 438.38,162.356 438.714,163.856 438.5,165.5C 433.796,164.962 429.462,165.962 425.5,168.5C 424.167,166.833 424.167,165.167 425.5,163.5C 426.901,162.479 428.235,161.479 429.5,160.5 Z"/></g>
<g><path style="opacity:1" fill="#d5cccc" d="M 423.5,151.5 C 425.857,151.337 428.19,151.503 430.5,152C 432.037,153.11 432.703,154.61 432.5,156.5C 428.13,157.185 424.464,159.185 421.5,162.5C 420.16,161.312 419.493,159.812 419.5,158C 420.205,155.458 421.539,153.292 423.5,151.5 Z"/></g>
<g><path style="opacity:1" fill="#d4cacb" d="M 418.5,141.5 C 423.55,140.835 426.55,142.835 427.5,147.5C 421.801,147.766 417.635,150.433 415,155.5C 411.894,153.658 410.894,150.992 412,147.5C 413.436,144.558 415.603,142.558 418.5,141.5 Z"/></g>
<g><path style="opacity:1" fill="#dbd1d1" d="M 428.5,187.5 C 419.409,192.726 410.242,192.726 401,187.5C 399.743,187.85 399.409,188.517 400,189.5C 402.293,191.372 404.793,192.872 407.5,194C 399.276,195.657 393.276,192.824 389.5,185.5C 388.013,182.087 388.18,178.753 390,175.5C 391.141,177.609 392.641,179.442 394.5,181C 395.635,181.749 396.635,181.583 397.5,180.5C 395.601,177.372 394.267,174.038 393.5,170.5C 395.925,164.816 397.925,158.983 399.5,153C 399.212,149.257 397.712,146.09 395,143.5C 393.121,132.698 397.121,129.365 407,133.5C 408,140.815 408.666,148.148 409,155.5C 416.358,160.852 421.358,167.852 424,176.5C 427.838,181.748 431.671,181.748 435.5,176.5C 432.976,176.102 430.476,175.768 428,175.5C 427.175,173.299 427.675,171.466 429.5,170C 432.482,169.502 435.482,169.335 438.5,169.5C 438.664,172.187 438.497,174.854 438,177.5C 435.039,181.141 431.873,184.474 428.5,187.5 Z"/></g>
<g><path style="opacity:1" fill="#201b1c" d="M 410.5,176.5 C 412.604,176.201 414.604,176.534 416.5,177.5C 413.97,178.132 411.637,179.132 409.5,180.5C 409.167,180.167 408.833,179.833 408.5,179.5C 409.193,178.482 409.859,177.482 410.5,176.5 Z"/></g>
<g><path style="opacity:1" fill="#1b1717" d="M 409.5,164.5 C 411.722,164.559 412.722,165.725 412.5,168C 411.855,171.468 410.189,174.302 407.5,176.5C 407.167,176.167 406.833,175.833 406.5,175.5C 408.584,172.169 409.584,168.503 409.5,164.5 Z"/></g>
<g><path style="opacity:1" fill="#0d0d0d" d="M 376.5,190.5 C 377.496,190.414 378.329,190.748 379,191.5C 380.46,189.578 382.127,188.911 384,189.5C 384.967,188.322 385.467,186.989 385.5,185.5C 386.281,186.729 386.781,188.062 387,189.5C 387.122,187.563 387.955,186.23 389.5,185.5C 393.276,192.824 399.276,195.657 407.5,194C 404.793,192.872 402.293,191.372 400,189.5C 399.409,188.517 399.743,187.85 401,187.5C 410.242,192.726 419.409,192.726 428.5,187.5C 430.027,187.427 431.027,188.094 431.5,189.5C 425.654,193.842 418.988,195.676 411.5,195C 410.449,196.385 409.116,197.385 407.5,198C 403.47,198.326 399.47,198.326 395.5,198C 385.35,209.967 372.684,218.134 357.5,222.5C 355.512,241.805 354.846,261.472 355.5,281.5C 354.493,290.672 349.493,296.172 340.5,298C 329.505,298.5 318.505,298.667 307.5,298.5C 306.72,309.516 306.72,320.516 307.5,331.5C 309.968,332.813 312.135,334.479 314,336.5C 323.267,330.397 332.434,330.397 341.5,336.5C 346.853,343.39 346.52,350.057 340.5,356.5C 343.167,359.833 343.167,363.167 340.5,366.5C 334.068,370.356 327.068,372.522 319.5,373C 307.167,373.667 294.833,373.667 282.5,373C 276.671,371.196 274.171,367.363 275,361.5C 276.632,359.069 278.132,356.569 279.5,354C 278.614,351.192 278.447,348.359 279,345.5C 281.693,342.433 283.027,338.766 283,334.5C 284.242,333.128 285.742,332.128 287.5,331.5C 288.565,320.856 289.232,310.19 289.5,299.5C 266.339,298.502 243.006,298.169 219.5,298.5C 219.182,303.032 219.515,307.366 220.5,311.5C 220.5,318.167 220.5,324.833 220.5,331.5C 222.929,331.585 224.929,332.585 226.5,334.5C 226.945,339.248 228.279,343.581 230.5,347.5C 229.988,350.186 229.821,352.853 230,355.5C 236.529,359.45 237.029,363.95 231.5,369C 215.789,373.892 199.789,374.892 183.5,372C 176.48,371.908 170.98,369.075 167,363.5C 166.105,360.534 166.605,357.867 168.5,355.5C 161.329,347.347 161.995,339.847 170.5,333C 179.409,330.269 187.742,331.435 195.5,336.5C 197.043,333.61 199.376,331.943 202.5,331.5C 202.713,320.473 202.38,309.473 201.5,298.5C 189.495,298.667 177.495,298.5 165.5,298C 159.426,295.583 155.926,291.083 155,284.5C 154.5,263.503 154.333,242.503 154.5,221.5C 144.005,225.158 136.505,232.158 132,242.5C 131.219,243.944 131.386,245.277 132.5,246.5C 141.492,250.625 142.825,256.458 136.5,264C 139.518,269.866 142.684,275.699 146,281.5C 148.289,287.005 147.956,292.338 145,297.5C 142.742,299.43 140.242,300.93 137.5,302C 133.951,308.962 128.784,310.796 122,307.5C 120.445,308.848 118.611,309.514 116.5,309.5C 112.52,307.281 108.187,306.114 103.5,306C 101.586,304.587 100.253,302.753 99.5,300.5C 97.5767,299.692 95.5767,299.192 93.5,299C 88.536,293.915 87.3693,288.082 90,281.5C 93.0675,273.695 97.4008,266.695 103,260.5C 102.523,252.149 106.356,247.149 114.5,245.5C 118.003,227.003 128.003,213.17 144.5,204C 147.605,202.132 150.938,200.965 154.5,200.5C 154.333,176.831 154.5,153.164 155,129.5C 157.377,122.455 162.21,118.288 169.5,117C 183.829,116.5 198.163,116.333 212.5,116.5C 212.261,114.533 212.594,112.699 213.5,111C 215.81,110.503 218.143,110.337 220.5,110.5C 224.416,91.7536 235.916,81.087 255,78.5C 276.278,79.2966 289.112,89.9633 293.5,110.5C 298.56,109.668 301.227,111.668 301.5,116.5C 314.171,116.333 326.838,116.5 339.5,117C 347.293,118.125 352.793,122.291 356,129.5C 356.5,153.164 356.667,176.831 356.5,200.5C 363.718,198.224 370.385,194.891 376.5,190.5 Z"/></g>
<g><path style="opacity:1" fill="#9c6932" d="M 287.5,105.5 C 288.339,106.641 289.006,107.974 289.5,109.5C 268.004,110.828 246.67,110.828 225.5,109.5C 246.34,109.831 267.007,109.497 287.5,108.5C 287.5,107.5 287.5,106.5 287.5,105.5 Z"/></g>
<g><path style="opacity:1" fill="#e58f2d" d="M 256.5,86.5 C 257.5,86.5 258.5,86.5 259.5,86.5C 259.917,89.0792 259.25,91.2458 257.5,93C 258.448,93.4828 259.448,93.6495 260.5,93.5C 260.157,95.4832 260.824,96.8166 262.5,97.5C 261.343,99.1376 260.176,100.804 259,102.5C 258.219,103.944 258.386,105.277 259.5,106.5C 261.161,104.173 263.161,102.173 265.5,100.5C 264.474,103.372 262.807,105.872 260.5,108C 269.494,108.5 278.494,108.666 287.5,108.5C 267.007,109.497 246.34,109.831 225.5,109.5C 225.69,106.145 226.69,103.145 228.5,100.5C 228.708,102.92 228.374,105.253 227.5,107.5C 232.167,108.833 236.833,108.833 241.5,107.5C 241.291,106.914 240.957,106.414 240.5,106C 241.737,105.768 242.737,105.268 243.5,104.5C 248.672,99.0115 253.006,93.0115 256.5,86.5 Z"/></g>
<g><path style="opacity:1" fill="#f19123" d="M 267.5,85.5 C 277.869,88.5356 284.536,95.2023 287.5,105.5C 287.5,106.5 287.5,107.5 287.5,108.5C 278.494,108.666 269.494,108.5 260.5,108C 262.807,105.872 264.474,103.372 265.5,100.5C 267.113,97.8682 268.78,95.2016 270.5,92.5C 269.635,91.4173 268.635,91.2506 267.5,92C 266.167,94.1906 264.5,96.024 262.5,97.5C 260.824,96.8166 260.157,95.4832 260.5,93.5C 259.448,93.6495 258.448,93.4828 257.5,93C 259.25,91.2458 259.917,89.0792 259.5,86.5C 258.5,86.5 257.5,86.5 256.5,86.5C 250.041,90.5172 245.041,96.0172 241.5,103C 241.836,104.03 242.503,104.53 243.5,104.5C 242.737,105.268 241.737,105.768 240.5,106C 240.957,106.414 241.291,106.914 241.5,107.5C 236.833,108.833 232.167,108.833 227.5,107.5C 228.374,105.253 228.708,102.92 228.5,100.5C 228.427,98.9731 229.094,97.9731 230.5,97.5C 235.822,92.0407 242.155,88.0407 249.5,85.5C 255.508,84.3011 261.508,84.3011 267.5,85.5 Z"/></g>
<g><path style="opacity:1" fill="#26160a" d="M 256.5,94.5 C 258.225,94.8425 258.725,95.8425 258,97.5C 256.847,100.152 255.013,102.152 252.5,103.5C 251.417,102.635 251.251,101.635 252,100.5C 253.332,98.34 254.832,96.34 256.5,94.5 Z"/></g>
<g><path style="opacity:1" fill="#1c0f08" d="M 265.5,100.5 C 263.161,102.173 261.161,104.173 259.5,106.5C 258.386,105.277 258.219,103.944 259,102.5C 260.176,100.804 261.343,99.1376 262.5,97.5C 264.5,96.024 266.167,94.1906 267.5,92C 268.635,91.2506 269.635,91.4173 270.5,92.5C 268.78,95.2016 267.113,97.8682 265.5,100.5 Z"/></g>
<g><path style="opacity:1" fill="#201108" d="M 256.5,86.5 C 253.006,93.0115 248.672,99.0115 243.5,104.5C 242.503,104.53 241.836,104.03 241.5,103C 245.041,96.0172 250.041,90.5172 256.5,86.5 Z"/></g>
<g><path style="opacity:1" fill="#c98334" d="M 267.5,85.5 C 261.508,84.3011 255.508,84.3011 249.5,85.5C 242.155,88.0407 235.822,92.0407 230.5,97.5C 234.388,90.3689 240.388,85.8689 248.5,84C 254.167,83.3333 259.833,83.3333 265.5,84C 266.416,84.2784 267.082,84.7784 267.5,85.5 Z"/></g>
<g><path style="opacity:1" fill="#58b19e" d="M 319.5,122.5 C 326.841,122.334 334.174,122.5 341.5,123C 344.173,124.001 346.507,125.501 348.5,127.5C 348.833,153.667 349.167,179.833 349.5,206C 349.659,232.918 349.159,259.751 348,286.5C 345.924,289.588 343.091,291.421 339.5,292C 281.084,292.992 222.751,292.658 164.5,291C 162.232,289.442 161.066,287.276 161,284.5C 160.333,233.167 160.333,181.833 161,130.5C 162.5,127.667 164.667,125.5 167.5,124C 218.335,123.833 269.002,123.333 319.5,122.5 Z"/></g>
<g><path style="opacity:1" fill="#0c1714" d="M 341.5,173.5 C 342.693,173.97 343.36,174.97 343.5,176.5C 341.927,183.143 338.26,188.31 332.5,192C 330.421,192.808 328.421,192.641 326.5,191.5C 333.66,187.337 338.66,181.337 341.5,173.5 Z"/></g>
<g><path style="opacity:1" fill="#0e0f0e" d="M 193.5,129.5 C 206.585,128.029 217.752,132.029 227,141.5C 233.557,152.416 234.224,163.75 229,175.5C 216.837,191.998 201.67,195.498 183.5,186C 169.304,173.165 166.804,158.332 176,141.5C 180.69,135.613 186.523,131.613 193.5,129.5 Z"/></g>
<g><path style="opacity:1" fill="#0e1a18" d="M 165.5,172.5 C 166.496,172.414 167.329,172.748 168,173.5C 170.86,180.859 175.694,186.526 182.5,190.5C 178.984,191.83 175.817,191.163 173,188.5C 171.71,186.208 170.043,184.208 168,182.5C 166.273,179.382 165.439,176.049 165.5,172.5 Z"/></g>
<g><path style="opacity:1" fill="#0a0c0a" d="M 253.5,165.5 C 256.862,165.07 259.695,166.07 262,168.5C 266.593,178.444 270.093,188.777 272.5,199.5C 293.503,199.333 314.503,199.5 335.5,200C 339.367,201.2 341.867,203.7 343,207.5C 343.667,230.5 343.667,253.5 343,276.5C 342.837,278.676 342.004,280.509 340.5,282C 296.25,283.656 251.917,283.989 207.5,283C 196.818,282.832 186.151,282.332 175.5,281.5C 173.005,279.851 171.505,277.517 171,274.5C 170.833,266 170.667,257.5 170.5,249C 170.262,233.717 171.095,218.55 173,203.5C 174.319,201.513 176.152,200.346 178.5,200C 198.5,199.667 218.5,199.333 238.5,199C 242.413,190.004 245.913,180.837 249,171.5C 250.332,169.34 251.832,167.34 253.5,165.5 Z"/></g>
<g><path style="opacity:1" fill="#d4c4a3" d="M 183.5,277.5 C 179.818,278.275 177.318,276.941 176,273.5C 175.916,259.506 176.083,245.506 176.5,231.5C 176.502,223.138 177.169,215.138 178.5,207.5C 203.428,206.215 228.428,205.548 253.5,205.5C 280.853,205.391 308.186,205.891 335.5,207C 337.484,230.27 338.151,253.77 337.5,277.5C 286.167,277.5 234.833,277.5 183.5,277.5 Z"/></g>
<g><path style="opacity:1" fill="#d9cfd0" d="M 259.5,193.5 C 263.35,193.701 264.35,195.534 262.5,199C 261.207,199.49 259.873,199.657 258.5,199.5C 258.325,197.379 258.659,195.379 259.5,193.5 Z"/></g>
<g><path style="opacity:1" fill="#d2c8c8" d="M 247.5,192.5 C 249.948,192.085 251.281,193.085 251.5,195.5C 251.225,197.609 250.058,198.942 248,199.5C 244.88,197.533 244.713,195.199 247.5,192.5 Z"/></g>
<g><path style="opacity:1" fill="#a3794a" d="M 225.5,163.5 C 225.232,165.099 225.566,166.432 226.5,167.5C 220.612,182.451 209.612,188.617 193.5,186C 185.653,182.652 179.987,177.152 176.5,169.5C 177.396,170.506 178.062,170.506 178.5,169.5C 187.355,184.966 199.688,188.466 215.5,180C 220.838,175.543 224.171,170.043 225.5,163.5 Z"/></g>
<g><path style="opacity:1" fill="#100e0c" d="M 298.5,131.5 C 317.792,128.557 331.292,135.89 339,153.5C 341.77,177.319 331.27,190.319 307.5,192.5C 294.374,192.68 285.208,186.68 280,174.5C 274.145,154.887 280.311,140.553 298.5,131.5 Z"/></g>
<g><path style="opacity:1" fill="#cc8f4c" d="M 285.5,153.5 C 282.288,169.427 288.288,179.927 303.5,185C 319.962,186.381 329.628,178.881 332.5,162.5C 333.167,161.5 333.833,160.5 334.5,159.5C 333.161,180.659 321.828,190.159 300.5,188C 287.472,182.126 281.472,171.959 282.5,157.5C 283.6,155.723 284.434,153.723 285,151.5C 285.464,152.094 285.631,152.761 285.5,153.5 Z"/></g>
<g><path style="opacity:1" fill="#221914" d="M 225.5,163.5 C 224.171,170.043 220.838,175.543 215.5,180C 199.688,188.466 187.355,184.966 178.5,169.5C 174.757,153.145 180.757,142.312 196.5,137C 199.833,136.333 203.167,136.333 206.5,137C 219.697,141.015 226.03,149.848 225.5,163.5 Z"/></g>
<g><path style="opacity:1" fill="#cac2b0" d="M 222.5,167.5 C 221.034,166.653 220.2,165.32 220,163.5C 219.398,166.221 219.565,168.887 220.5,171.5C 218.108,174.895 215.108,177.561 211.5,179.5C 210.719,178.271 210.219,176.938 210,175.5C 209.505,177.473 209.338,179.473 209.5,181.5C 207.508,181.672 205.842,181.005 204.5,179.5C 203.614,180.325 203.281,181.325 203.5,182.5C 200.833,182.5 198.167,182.5 195.5,182.5C 195.278,176.435 194.278,175.768 192.5,180.5C 189.06,179.079 187.56,176.413 188,172.5C 187.77,176.483 186.437,177.149 184,174.5C 182.847,171.289 182.18,167.956 182,164.5C 181.641,167.544 180.974,167.878 180,165.5C 179.233,161.406 179.566,157.406 181,153.5C 181.333,155.5 181.667,157.5 182,159.5C 182.079,155.642 182.746,151.976 184,148.5C 184.176,151.882 184.676,155.215 185.5,158.5C 186.328,153.868 186.828,149.202 187,144.5C 188.973,143.36 190.807,142.027 192.5,140.5C 193.987,144.141 195.321,143.808 196.5,139.5C 198.071,138.691 199.738,138.357 201.5,138.5C 201.664,144.167 201.997,144.5 202.5,139.5C 203.833,139.5 205.167,139.5 206.5,139.5C 206.351,140.552 206.517,141.552 207,142.5C 208.312,140.342 209.978,140.009 212,141.5C 212.333,143.167 212.667,144.833 213,146.5C 214.221,142.873 215.888,142.873 218,146.5C 218.13,150.951 218.796,155.284 220,159.5C 220.968,149.236 222.135,149.569 223.5,160.5C 223.363,162.883 223.029,165.217 222.5,167.5 Z"/></g>
<g><path style="opacity:1" fill="#261e13" d="M 214.5,161.5 C 213.89,162.391 213.557,163.391 213.5,164.5C 211.836,172.335 207.169,176.835 199.5,178C 190.228,172.88 186.728,165.047 189,154.5C 191.96,144.607 198.46,141.607 208.5,145.5C 212.931,149.869 214.931,155.202 214.5,161.5 Z"/></g>
<g><path style="opacity:1" fill="#706f60" d="M 222.5,167.5 C 222.011,168.995 221.345,170.329 220.5,171.5C 219.565,168.887 219.398,166.221 220,163.5C 220.2,165.32 221.034,166.653 222.5,167.5 Z"/></g>
<g><path style="opacity:1" fill="#686653" d="M 214.5,161.5 C 215.794,163.048 216.461,165.048 216.5,167.5C 216.167,169.5 215.833,171.5 215.5,173.5C 214.833,170.358 214.166,167.358 213.5,164.5C 213.557,163.391 213.89,162.391 214.5,161.5 Z"/></g>
<g><path style="opacity:1" fill="#0a1514" d="M 282.5,130.5 C 284.028,130.517 284.528,131.184 284,132.5C 274.342,141.289 269.842,152.289 270.5,165.5C 269.5,165.5 268.5,165.5 267.5,165.5C 264.962,155.855 266.796,147.189 273,139.5C 275.749,135.943 278.915,132.943 282.5,130.5 Z"/></g>
<g><path style="opacity:1" fill="#07100d" d="M 226.5,128.5 C 243.216,135.963 249.216,148.629 244.5,166.5C 243.176,155.664 239.676,145.664 234,136.5C 231.217,133.891 228.717,131.224 226.5,128.5 Z"/></g>
<g><path style="opacity:1" fill="#c4a75d" d="M 195.5,146.5 C 199.514,146.334 203.514,146.501 207.5,147C 214.262,156.181 213.929,165.181 206.5,174C 204.726,174.97 202.893,175.804 201,176.5C 191.701,172.07 188.368,164.737 191,154.5C 191.738,151.352 193.238,148.685 195.5,146.5 Z"/></g>
<g><path style="opacity:1" fill="#2a1f14" d="M 196.5,148.5 C 202.322,148.136 206.155,150.803 208,156.5C 208.938,161.527 208.438,166.36 206.5,171C 200.662,171.863 196.829,169.363 195,163.5C 192.56,158.103 193.06,153.103 196.5,148.5 Z"/></g>
<g><path style="opacity:1" fill="#d5cbba" d="M 197.5,149.5 C 203.917,151.288 207.251,155.621 207.5,162.5C 207.331,164.839 206.664,167.006 205.5,169C 200.704,168.9 197.538,166.4 196,161.5C 194.994,157.198 195.494,153.198 197.5,149.5 Z"/></g>
<g><path style="opacity:1" fill="#aa7e4e" d="M 334.5,159.5 C 333.833,160.5 333.167,161.5 332.5,162.5C 330.478,144.65 320.478,136.483 302.5,138C 294.194,140.453 288.527,145.62 285.5,153.5C 285.631,152.761 285.464,152.094 285,151.5C 284.434,153.723 283.6,155.723 282.5,157.5C 285.267,143.718 293.767,136.385 308,135.5C 323.072,136.744 331.906,144.744 334.5,159.5 Z"/></g>
<g><path style="opacity:1" fill="#c48948" d="M 226.5,167.5 C 225.566,166.432 225.232,165.099 225.5,163.5C 226.03,149.848 219.697,141.015 206.5,137C 203.167,136.333 199.833,136.333 196.5,137C 180.757,142.312 174.757,153.145 178.5,169.5C 178.062,170.506 177.396,170.506 176.5,169.5C 172.323,155.862 175.99,145.029 187.5,137C 199.665,131.221 210.832,132.721 221,141.5C 227.387,149.136 229.22,157.803 226.5,167.5 Z"/></g>
<g><path style="opacity:1" fill="#1f1510" d="M 332.5,162.5 C 329.628,178.881 319.962,186.381 303.5,185C 288.288,179.927 282.288,169.427 285.5,153.5C 288.527,145.62 294.194,140.453 302.5,138C 320.478,136.483 330.478,144.65 332.5,162.5 Z"/></g>
<g><path style="opacity:1" fill="#5f5552" d="M 328.5,170.5 C 328.217,171.289 327.717,171.956 327,172.5C 326.809,170.292 326.309,168.292 325.5,166.5C 325.491,164.692 325.991,163.025 327,161.5C 327.181,164.695 327.681,167.695 328.5,170.5 Z"/></g>
<g><path style="opacity:1" fill="#cdc4b2" d="M 309.5,144.5 C 310.434,143.432 310.768,142.099 310.5,140.5C 311.5,140.5 312.5,140.5 313.5,140.5C 314.5,140.5 315.5,140.5 316.5,140.5C 316.338,142.527 316.505,144.527 317,146.5C 317.219,145.062 317.719,143.729 318.5,142.5C 320.923,143.712 321.923,145.712 321.5,148.5C 321.34,150.199 321.506,151.866 322,153.5C 322.216,151.616 322.883,149.949 324,148.5C 324.667,149.167 325.333,149.833 326,150.5C 326.333,153.167 326.667,155.833 327,158.5C 327.2,156.68 328.034,155.347 329.5,154.5C 330.82,159.937 330.487,165.27 328.5,170.5C 327.681,167.695 327.181,164.695 327,161.5C 325.991,163.025 325.491,164.692 325.5,166.5C 325.665,169.518 325.498,172.518 325,175.5C 324.092,177.439 322.592,178.439 320.5,178.5C 320.665,175.482 320.498,172.482 320,169.5C 319.358,173.491 318.858,177.491 318.5,181.5C 317.5,181.5 316.5,181.5 315.5,181.5C 315.799,179.396 315.466,177.396 314.5,175.5C 313.526,177.743 313.192,180.076 313.5,182.5C 309.723,182.945 305.723,182.945 301.5,182.5C 301.669,177.959 301.002,177.626 299.5,181.5C 297.247,180.747 295.413,179.414 294,177.5C 293.828,172.798 293.328,168.132 292.5,163.5C 290.841,176.559 289.674,176.225 289,162.5C 288.667,164.167 288.333,165.833 288,167.5C 286,162.833 286,158.167 288,153.5C 288.333,154.833 288.667,156.167 289,157.5C 288.58,152.648 290.08,148.648 293.5,145.5C 294.281,146.729 294.781,148.062 295,149.5C 294.328,144.924 296.161,142.257 300.5,141.5C 300.238,142.978 300.571,144.311 301.5,145.5C 302.452,143.955 302.785,142.288 302.5,140.5C 304.379,139.659 306.379,139.325 308.5,139.5C 308.216,141.415 308.549,143.081 309.5,144.5 Z"/></g>
<g><path style="opacity:1" fill="#282014" d="M 301.5,148.5 C 303.39,148.297 304.89,148.963 306,150.5C 308.06,156.322 308.893,162.322 308.5,168.5C 309.675,168.719 310.675,168.386 311.5,167.5C 313.313,163.664 313.813,159.664 313,155.5C 306.036,152.047 306.203,150.047 313.5,149.5C 315.964,149.59 318.13,150.257 320,151.5C 320.381,161.022 317.214,169.189 310.5,176C 308.147,177.964 305.647,178.464 303,177.5C 302.76,168.131 300.926,159.131 297.5,150.5C 298.949,149.828 300.282,149.161 301.5,148.5 Z"/></g>
<g><path style="opacity:1" fill="#c1a660" d="M 299.5,151.5 C 301.035,150.212 302.701,150.212 304.5,151.5C 305.806,156.744 306.639,162.077 307,167.5C 308.478,170.993 310.478,171.326 313,168.5C 315.067,164.361 315.734,160.027 315,155.5C 313.59,154.213 312.09,153.046 310.5,152C 317.567,148.73 320.067,150.897 318,158.5C 316.903,165.874 313.403,171.707 307.5,176C 306.552,176.483 305.552,176.649 304.5,176.5C 304.09,169.126 303.256,161.793 302,154.5C 301.148,153.429 300.315,152.429 299.5,151.5 Z"/></g>
<g><path style="opacity:1" fill="#8f867b" d="M 329.5,154.5 C 328.034,155.347 327.2,156.68 327,158.5C 326.667,155.833 326.333,153.167 326,150.5C 325.333,149.833 324.667,149.167 324,148.5C 322.883,149.949 322.216,151.616 322,153.5C 321.506,151.866 321.34,150.199 321.5,148.5C 322.158,147.602 322.824,146.602 323.5,145.5C 326.255,148.013 328.255,151.013 329.5,154.5 Z"/></g>
<g><path style="opacity:1" fill="#706756" d="M 302.5,140.5 C 302.785,142.288 302.452,143.955 301.5,145.5C 300.571,144.311 300.238,142.978 300.5,141.5C 301.167,141.167 301.833,140.833 302.5,140.5 Z"/></g>
<g><path style="opacity:1" fill="#716c63" d="M 313.5,140.5 C 312.5,140.5 311.5,140.5 310.5,140.5C 310.768,142.099 310.434,143.432 309.5,144.5C 309.5,142.833 309.5,141.167 309.5,139.5C 311.099,139.232 312.432,139.566 313.5,140.5 Z"/></g>
<g><path style="opacity:1" fill="#0a1615" d="M 330.5,131.5 C 331.552,131.351 332.552,131.517 333.5,132C 338.29,135.52 340.29,140.02 339.5,145.5C 336.479,140.777 333.479,136.11 330.5,131.5 Z"/></g>
<g><path style="opacity:1" fill="#0c1917" d="M 177.5,128.5 C 178.978,128.238 180.311,128.571 181.5,129.5C 176.288,133.624 172.288,138.624 169.5,144.5C 168.369,142.926 168.202,141.259 169,139.5C 171.339,135.343 174.172,131.676 177.5,128.5 Z"/></g>
<g><path style="opacity:1" fill="#191410" d="M 209.5,210.5 C 210.675,210.281 211.675,210.614 212.5,211.5C 211.116,214.334 210.449,217.334 210.5,220.5C 211.487,225.151 212.487,229.817 213.5,234.5C 210.225,233.386 208.058,231.053 207,227.5C 205.804,221.461 206.638,215.795 209.5,210.5 Z"/></g>
<g><path style="opacity:1" fill="#100d0a" d="M 301.5,209.5 C 304.747,210.272 306.913,212.272 308,215.5C 309.232,222.839 308.232,229.839 305,236.5C 303.89,238.037 302.39,238.703 300.5,238.5C 301.943,232.781 302.943,226.948 303.5,221C 303.273,217.064 302.607,213.23 301.5,209.5 Z"/></g>
<g><path style="opacity:1" fill="#191410" d="M 199.5,221.5 C 201.064,227.187 203.064,232.853 205.5,238.5C 200.197,237.208 197.864,233.708 198.5,228C 198.653,225.784 198.986,223.617 199.5,221.5 Z"/></g>
<g><path style="opacity:1" fill="#171410" d="M 312.5,223.5 C 313.833,223.5 315.167,223.5 316.5,223.5C 316.665,227.182 316.499,230.848 316,234.5C 314.959,236.585 313.459,238.252 311.5,239.5C 310.5,239.167 309.833,238.5 309.5,237.5C 311.96,233.156 312.96,228.489 312.5,223.5 Z"/></g>
<g><path style="opacity:1" fill="#100c0b" d="M 190.5,265.5 C 197.5,265.5 204.5,265.5 211.5,265.5C 211.5,260.833 211.5,256.167 211.5,251.5C 214.303,236.174 223.303,229.674 238.5,232C 244.185,220.495 252.851,217.495 264.5,223C 268.219,225.937 270.219,229.771 270.5,234.5C 283.419,230.284 291.585,234.618 295,247.5C 295.499,253.491 295.666,259.491 295.5,265.5C 304.839,265.334 314.173,265.5 323.5,266C 324.406,267.699 324.739,269.533 324.5,271.5C 280.165,271.667 235.832,271.5 191.5,271C 190.594,269.301 190.261,267.467 190.5,265.5 Z"/></g>
<g><path style="opacity:1" fill="#f69321" d="M 260.5,227.5 C 262.543,228.579 263.876,230.246 264.5,232.5C 264.5,243.167 264.5,253.833 264.5,264.5C 257.833,264.5 251.167,264.5 244.5,264.5C 243.774,254.183 243.44,243.85 243.5,233.5C 245.963,231.539 248.297,229.372 250.5,227C 253.868,226.457 257.201,226.624 260.5,227.5 Z"/></g>
<g><path style="opacity:1" fill="#a06a2e" d="M 236.5,239.5 C 232.167,236.833 227.833,236.833 223.5,239.5C 224.874,237.041 227.04,236.041 230,236.5C 232.96,236.041 235.126,237.041 236.5,239.5 Z"/></g>
<g><path style="opacity:1" fill="#9c6427" d="M 260.5,227.5 C 257.201,226.624 253.868,226.457 250.5,227C 248.297,229.372 245.963,231.539 243.5,233.5C 247.058,225.371 252.725,223.371 260.5,227.5 Z"/></g>
<g><path style="opacity:1" fill="#f59221" d="M 287.5,243.5 C 288.341,250.465 288.674,257.465 288.5,264.5C 282.833,264.5 277.167,264.5 271.5,264.5C 271.5,261.5 271.5,258.5 271.5,255.5C 267.98,243.207 272.313,238.04 284.5,240C 286.426,240.422 287.426,241.589 287.5,243.5 Z"/></g>
<g><path style="opacity:1" fill="#878787" d="M 357.5,222.5 C 356.845,242.265 356.178,261.931 355.5,281.5C 354.846,261.472 355.512,241.805 357.5,222.5 Z"/></g>
<g><path style="opacity:1" fill="#f79320" d="M 236.5,239.5 C 236.5,247.833 236.5,256.167 236.5,264.5C 230.122,264.705 223.789,264.372 217.5,263.5C 216.114,254.452 218.114,246.452 223.5,239.5C 227.833,236.833 232.167,236.833 236.5,239.5 Z"/></g>
<g><path style="opacity:1" fill="#9d917e" d="M 211.5,251.5 C 211.5,256.167 211.5,260.833 211.5,265.5C 204.5,265.5 197.5,265.5 190.5,265.5C 196.979,264.509 203.646,264.176 210.5,264.5C 210.182,259.968 210.515,255.634 211.5,251.5 Z"/></g>
<g><path style="opacity:1" fill="#c78233" d="M 223.5,239.5 C 218.114,246.452 216.114,254.452 217.5,263.5C 223.789,264.372 230.122,264.705 236.5,264.5C 236.5,256.167 236.5,247.833 236.5,239.5C 238.246,247.933 238.912,256.6 238.5,265.5C 230.833,265.5 223.167,265.5 215.5,265.5C 214.507,256.955 216.007,248.955 220,241.5C 220.816,240.177 221.983,239.511 223.5,239.5 Z"/></g>
<g><path style="opacity:1" fill="#b67631" d="M 264.5,232.5 C 265.314,234.631 265.814,236.964 266,239.5C 266.5,248.16 266.666,256.827 266.5,265.5C 258.5,265.5 250.5,265.5 242.5,265.5C 242.172,254.654 242.506,243.987 243.5,233.5C 243.44,243.85 243.774,254.183 244.5,264.5C 251.167,264.5 257.833,264.5 264.5,264.5C 264.5,253.833 264.5,243.167 264.5,232.5 Z"/></g>
<g><path style="opacity:1" fill="#ca873d" d="M 287.5,243.5 C 288.927,245.148 289.76,247.148 290,249.5C 290.499,254.823 290.666,260.156 290.5,265.5C 283.833,265.5 277.167,265.5 270.5,265.5C 270.187,261.958 270.521,258.625 271.5,255.5C 271.5,258.5 271.5,261.5 271.5,264.5C 277.167,264.5 282.833,264.5 288.5,264.5C 288.674,257.465 288.341,250.465 287.5,243.5 Z"/></g>
<g><path style="opacity:1" fill="#ded3d3" d="M 129.5,250.5 C 137.824,255.396 137.157,258.896 127.5,261C 124.833,262.333 124.833,263.667 127.5,265C 129.577,265.192 131.577,265.692 133.5,266.5C 136.349,272.198 139.182,277.864 142,283.5C 142.978,287.9 142.478,292.067 140.5,296C 138.608,296.973 136.608,297.64 134.5,298C 132.942,301.06 130.609,303.226 127.5,304.5C 125.653,303.814 123.986,302.814 122.5,301.5C 120.792,301.703 119.459,302.536 118.5,304C 114.508,305.177 112.842,303.677 113.5,299.5C 110.712,299.868 108.046,300.368 105.5,301C 104.736,298.931 104.236,296.764 104,294.5C 101.595,294.036 99.095,293.869 96.5,294C 94.7029,292.406 93.7029,290.406 93.5,288C 96.0352,279.43 100.035,271.596 105.5,264.5C 108.759,265.529 112.259,265.529 116,264.5C 116.667,263.5 116.667,262.5 116,261.5C 113.825,260.745 111.659,259.912 109.5,259C 107.404,254.592 108.738,252.092 113.5,251.5C 115.101,261.004 119.935,263.004 128,257.5C 128.29,255.08 128.79,252.746 129.5,250.5 Z"/></g>
<g><path style="opacity:1" fill="#b9ae99" d="M 183.5,277.5 C 234.833,277.5 286.167,277.5 337.5,277.5C 338.151,253.77 337.484,230.27 335.5,207C 308.186,205.891 280.853,205.391 253.5,205.5C 228.428,205.548 203.428,206.215 178.5,207.5C 179.058,206.21 180.058,205.377 181.5,205C 232.833,204.333 284.167,204.333 335.5,205C 336.416,205.374 337.25,205.874 338,206.5C 338.276,225.508 338.776,244.508 339.5,263.5C 339.208,268.509 338.874,273.509 338.5,278.5C 286.664,278.832 234.997,278.499 183.5,277.5 Z"/></g>
<g><path style="opacity:1" fill="#15100e" d="M 104.5,287.5 C 105.5,287.5 106.5,287.5 107.5,287.5C 107.5,288.5 107.5,289.5 107.5,290.5C 106.5,290.5 105.5,290.5 104.5,290.5C 104.5,289.5 104.5,288.5 104.5,287.5 Z"/></g>
<g><path style="opacity:1" fill="#1c1516" d="M 113.5,291.5 C 114.5,291.5 115.5,291.5 116.5,291.5C 116.5,292.5 116.5,293.5 116.5,294.5C 115.5,294.5 114.5,294.5 113.5,294.5C 113.5,293.5 113.5,292.5 113.5,291.5 Z"/></g>
<g><path style="opacity:1" fill="#261f1f" d="M 122.5,292.5 C 123.833,292.5 125.167,292.5 126.5,292.5C 126.833,295.5 125.5,296.833 122.5,296.5C 122.5,295.167 122.5,293.833 122.5,292.5 Z"/></g>
<g><path style="opacity:1" fill="#a8a9a7" d="M 289.5,299.5 C 266.5,299.5 243.5,299.5 220.5,299.5C 220.5,303.5 220.5,307.5 220.5,311.5C 219.515,307.366 219.182,303.032 219.5,298.5C 243.006,298.169 266.339,298.502 289.5,299.5 Z"/></g>
<g><path style="opacity:1" fill="#a25126" d="M 335.5,337.5 C 331.486,337.334 327.486,337.501 323.5,338C 327.446,338.878 331.279,340.045 335,341.5C 335.667,344.167 335.667,346.833 335,349.5C 334.184,350.823 333.017,351.489 331.5,351.5C 336.663,343.179 334.33,339.846 324.5,341.5C 326.386,342.406 328.22,343.406 330,344.5C 330.725,346.157 330.225,347.157 328.5,347.5C 328.5,346.5 328.5,345.5 328.5,344.5C 324.721,344.53 321.221,343.53 318,341.5C 313.843,343.65 309.677,345.816 305.5,348C 303.288,348.789 301.288,348.622 299.5,347.5C 301.199,347.66 302.866,347.494 304.5,347C 310.877,342.811 317.544,339.145 324.5,336C 328.477,335.121 332.144,335.621 335.5,337.5 Z"/></g>
<g><path style="opacity:1" fill="#894424" d="M 299.5,345.5 C 298.432,344.566 297.099,344.232 295.5,344.5C 295.715,346.179 295.048,347.179 293.5,347.5C 291.901,347.768 290.568,347.434 289.5,346.5C 290.873,346.657 292.207,346.49 293.5,346C 288.527,344.204 286.194,340.704 286.5,335.5C 287.5,335.5 288.5,335.5 289.5,335.5C 289.472,337.582 290.139,339.416 291.5,341C 298.684,345.046 304.017,343.213 307.5,335.5C 309.384,336.693 309.884,338.359 309,340.5C 306.14,342.887 302.973,344.553 299.5,345.5 Z"/></g>
<g><path style="opacity:1" fill="#9e5026" d="M 220.5,356.5 C 220.918,355.778 221.584,355.278 222.5,355C 220.292,354.809 218.292,354.309 216.5,353.5C 214.692,352.082 214.025,350.082 214.5,347.5C 212.512,347.827 210.512,348.16 208.5,348.5C 205.64,348.445 203.307,347.445 201.5,345.5C 204.113,346.435 206.779,346.602 209.5,346C 206.08,344.254 202.913,342.087 200,339.5C 199.243,336.086 200.41,335.086 203.5,336.5C 205.71,342.288 209.71,343.955 215.5,341.5C 217.543,340.421 218.876,338.754 219.5,336.5C 220.689,335.571 222.022,335.238 223.5,335.5C 223.657,336.873 223.49,338.207 223,339.5C 220.305,341.694 217.472,343.694 214.5,345.5C 218.377,345.623 222.211,345.623 226,345.5C 227.294,350.913 225.461,354.58 220.5,356.5 Z"/></g>
<g><path style="opacity:1" fill="#934c26" d="M 335.5,337.5 C 338.091,338.254 339.924,339.921 341,342.5C 341.781,345.817 341.281,348.817 339.5,351.5C 339.665,348.15 339.498,344.817 339,341.5C 337.373,340.468 336.207,339.134 335.5,337.5 Z"/></g>
<g><path style="opacity:1" fill="#1d0a04" d="M 331.5,351.5 C 330.167,351.5 328.833,351.5 327.5,351.5C 327.433,350.041 327.766,348.708 328.5,347.5C 330.225,347.157 330.725,346.157 330,344.5C 328.22,343.406 326.386,342.406 324.5,341.5C 334.33,339.846 336.663,343.179 331.5,351.5 Z"/></g>
<g><path style="opacity:1" fill="#120408" d="M 216.5,353.5 C 214.913,349.082 216.58,347.415 221.5,348.5C 222.167,352.5 220.5,354.167 216.5,353.5 Z"/></g>
<g><path style="opacity:1" fill="#ab5629" d="M 289.5,346.5 C 290.568,347.434 291.901,347.768 293.5,347.5C 293.5,348.5 293.5,349.5 293.5,350.5C 295.225,350.843 295.725,351.843 295,353.5C 290.195,355.47 290.361,356.803 295.5,357.5C 296.246,358.736 296.579,360.07 296.5,361.5C 293.287,361.81 290.287,361.477 287.5,360.5C 290.187,360.664 292.854,360.497 295.5,360C 291.449,359.074 287.616,357.574 284,355.5C 282.876,352.558 282.542,349.558 283,346.5C 285.12,345.395 287.287,345.395 289.5,346.5 Z"/></g>
<g><path style="opacity:1" fill="#c75b20" d="M 335.5,337.5 C 336.207,339.134 337.373,340.468 339,341.5C 339.498,344.817 339.665,348.15 339.5,351.5C 336.392,353.895 333.058,356.062 329.5,358C 323.789,359.234 318.456,361.234 313.5,364C 316.888,364.659 320.221,364.492 323.5,363.5C 327.906,363.252 332.24,362.585 336.5,361.5C 336.5,362.5 336.5,363.5 336.5,364.5C 334.697,365.046 333.03,365.88 331.5,367C 318.167,367.667 304.833,367.667 291.5,367C 289.365,365.619 287.032,364.619 284.5,364C 283.62,362.644 283.286,361.144 283.5,359.5C 285.099,359.232 286.432,359.566 287.5,360.5C 290.287,361.477 293.287,361.81 296.5,361.5C 296.579,360.07 296.246,358.736 295.5,357.5C 290.361,356.803 290.195,355.47 295,353.5C 295.725,351.843 295.225,350.843 293.5,350.5C 293.5,349.5 293.5,348.5 293.5,347.5C 295.048,347.179 295.715,346.179 295.5,344.5C 297.099,344.232 298.432,344.566 299.5,345.5C 299.5,346.167 299.5,346.833 299.5,347.5C 301.288,348.622 303.288,348.789 305.5,348C 309.677,345.816 313.843,343.65 318,341.5C 321.221,343.53 324.721,344.53 328.5,344.5C 328.5,345.5 328.5,346.5 328.5,347.5C 327.766,348.708 327.433,350.041 327.5,351.5C 328.833,351.5 330.167,351.5 331.5,351.5C 333.017,351.489 334.184,350.823 335,349.5C 335.667,346.833 335.667,344.167 335,341.5C 331.279,340.045 327.446,338.878 323.5,338C 327.486,337.501 331.486,337.334 335.5,337.5 Z"/></g>
<g><path style="opacity:1" fill="#ab5324" d="M 193.5,340.5 C 190.564,339.594 187.564,338.928 184.5,338.5C 184.715,340.179 184.048,341.179 182.5,341.5C 182.5,340.5 182.5,339.5 182.5,338.5C 175.62,337.876 172.786,340.876 174,347.5C 175.258,350.055 177.091,350.722 179.5,349.5C 175.218,346.059 175.551,343.392 180.5,341.5C 179.645,342.531 178.978,343.697 178.5,345C 181.371,348.291 181.037,351.291 177.5,354C 181.312,355.769 184.979,357.602 188.5,359.5C 179.881,359.083 173.047,355.417 168,348.5C 166.741,339.694 170.574,335.361 179.5,335.5C 184.985,335.215 189.652,336.881 193.5,340.5 Z"/></g>
<g><path style="opacity:1" fill="#1d0b05" d="M 182.5,341.5 C 181.833,341.5 181.167,341.5 180.5,341.5C 175.551,343.392 175.218,346.059 179.5,349.5C 177.091,350.722 175.258,350.055 174,347.5C 172.786,340.876 175.62,337.876 182.5,338.5C 182.5,339.5 182.5,340.5 182.5,341.5 Z"/></g>
<g><path style="opacity:1" fill="#ca5c1e" d="M 193.5,340.5 C 196.149,342.14 198.816,343.807 201.5,345.5C 203.307,347.445 205.64,348.445 208.5,348.5C 210.512,348.16 212.512,347.827 214.5,347.5C 214.025,350.082 214.692,352.082 216.5,353.5C 218.292,354.309 220.292,354.809 222.5,355C 221.584,355.278 220.918,355.778 220.5,356.5C 216.02,356.268 211.687,356.935 207.5,358.5C 210.83,360.161 214.163,361.828 217.5,363.5C 211.273,365.102 204.94,365.769 198.5,365.5C 198.5,364.167 198.5,362.833 198.5,361.5C 195.413,359.983 192.079,359.316 188.5,359.5C 184.979,357.602 181.312,355.769 177.5,354C 181.037,351.291 181.371,348.291 178.5,345C 178.978,343.697 179.645,342.531 180.5,341.5C 181.167,341.5 181.833,341.5 182.5,341.5C 184.048,341.179 184.715,340.179 184.5,338.5C 187.564,338.928 190.564,339.594 193.5,340.5 Z"/></g>
<g><path style="opacity:1" fill="#18080a" d="M 293.5,350.5 C 293.5,351.5 293.5,352.5 293.5,353.5C 291.5,353.5 289.5,353.5 287.5,353.5C 287.5,351.833 287.5,350.167 287.5,348.5C 289.858,348.253 291.858,348.919 293.5,350.5 Z"/></g>
<g><path style="opacity:1" fill="#b05828" d="M 220.5,356.5 C 218.26,357.264 215.927,358.098 213.5,359C 216.988,360.716 220.488,360.549 224,358.5C 224.667,359.833 224.667,361.167 224,362.5C 219.833,364.788 215.333,366.288 210.5,367C 198.79,367.861 187.123,367.527 175.5,366C 172.307,364.974 170.974,362.808 171.5,359.5C 173.099,359.232 174.432,359.566 175.5,360.5C 174.503,360.47 173.836,360.97 173.5,362C 175.664,364.662 178.498,365.829 182,365.5C 183.986,365.431 185.486,364.765 186.5,363.5C 189.518,363.665 192.518,363.498 195.5,363C 193.075,361.787 190.741,360.621 188.5,359.5C 192.079,359.316 195.413,359.983 198.5,361.5C 198.5,362.833 198.5,364.167 198.5,365.5C 204.94,365.769 211.273,365.102 217.5,363.5C 214.163,361.828 210.83,360.161 207.5,358.5C 211.687,356.935 216.02,356.268 220.5,356.5 Z"/></g>
<g><path style="opacity:1" fill="#6f3618" d="M 175.5,360.5 C 179.162,360.723 182.495,361.723 185.5,363.5C 181.838,363.277 178.505,362.277 175.5,360.5 Z"/></g>
<g><path style="opacity:1" fill="#7e4323" d="M 336.5,364.5 C 336.5,363.5 336.5,362.5 336.5,361.5C 332.24,362.585 327.906,363.252 323.5,363.5C 328.185,361.508 333.185,360.508 338.5,360.5C 338.771,362.38 338.104,363.713 336.5,364.5 Z"/></g>
<g><path style="opacity:1" fill="#cb5d21" d="M 175.5,360.5 C 178.505,362.277 181.838,363.277 185.5,363.5C 185.833,363.5 186.167,363.5 186.5,363.5C 185.486,364.765 183.986,365.431 182,365.5C 178.498,365.829 175.664,364.662 173.5,362C 173.836,360.97 174.503,360.47 175.5,360.5 Z"/></g>
<g><path style="opacity:1" fill="#a0a0a0" d="M 236.5,393.5 C 228.427,392.868 220.76,393.535 213.5,395.5C 212.596,394.791 212.263,393.791 212.5,392.5C 220.684,392.174 228.684,392.508 236.5,393.5 Z"/></g>
<g><path style="opacity:1" fill="#b4b4b4" d="M 337.5,393.5 C 345.65,392.507 353.983,392.174 362.5,392.5C 362.737,393.791 362.404,394.791 361.5,395.5C 353.903,393.533 345.903,392.866 337.5,393.5 Z"/></g>
<g><path style="opacity:1" fill="#101010" d="M 337.5,393.5 C 345.903,392.866 353.903,393.533 361.5,395.5C 362.006,406.877 363.006,418.211 364.5,429.5C 363.129,430.787 361.295,431.453 359,431.5C 356.967,431.494 355.134,431.161 353.5,430.5C 355.21,425.006 355.876,419.34 355.5,413.5C 352.626,413.451 349.792,413.784 347,414.5C 344.833,414.331 343.666,413.164 343.5,411C 343.667,409.5 344.5,408.667 346,408.5C 348.848,409.783 351.682,409.783 354.5,408.5C 354.833,406.833 355.167,405.167 355.5,403.5C 355.991,397.493 353.324,395.326 347.5,397C 339.354,406.269 338.354,416.269 344.5,427C 346.025,428.009 347.692,428.509 349.5,428.5C 349.64,430.124 348.973,431.29 347.5,432C 343.179,432.499 338.846,432.666 334.5,432.5C 335.148,421.266 336.482,410.099 338.5,399C 338.304,397.122 337.971,395.288 337.5,393.5 Z"/></g>
<g><path style="opacity:1" fill="#0d0d0d" d="M 236.5,393.5 C 237.222,393.918 237.722,394.584 238,395.5C 238.167,398.167 238.333,400.833 238.5,403.5C 237.689,411.16 237.522,418.827 238,426.5C 238.833,428.167 239.667,429.833 240.5,431.5C 237.291,432.787 234.125,432.787 231,431.5C 230.234,422.93 230.734,414.43 232.5,406C 232.274,402.988 231.441,400.155 230,397.5C 226.606,395.725 223.94,396.392 222,399.5C 221.333,408.5 221.333,417.5 222,426.5C 222.833,428.167 223.667,429.833 224.5,431.5C 220.5,432.833 216.5,432.833 212.5,431.5C 213.154,429.885 213.654,428.218 214,426.5C 214.825,415.992 214.659,405.658 213.5,395.5C 220.76,393.535 228.427,392.868 236.5,393.5 Z"/></g>
<g><path style="opacity:1" fill="#0d0d0d" d="M 369.5,393.5 C 390.841,387.022 399.007,394.355 394,415.5C 392.188,418.28 390.021,420.78 387.5,423C 385.101,423.711 382.768,423.544 380.5,422.5C 379.004,419.825 379.671,417.825 382.5,416.5C 383.386,417.325 383.719,418.325 383.5,419.5C 385.39,419.703 386.89,419.037 388,417.5C 388.667,412.833 388.667,408.167 388,403.5C 386.611,398.224 383.444,396.224 378.5,397.5C 375.132,409.27 376.132,420.603 381.5,431.5C 377.205,432.661 372.871,432.828 368.5,432C 369.126,431.25 369.626,430.416 370,429.5C 370.792,417.454 370.626,405.454 369.5,393.5 Z"/></g>
<g><path style="opacity:1" fill="#111111" d="M 121.5,393.5 C 127.176,393.334 132.843,393.501 138.5,394C 148.169,409.989 145.002,422.822 129,432.5C 117.223,426.85 112.89,417.516 116,404.5C 117.319,400.528 119.153,396.861 121.5,393.5 Z"/></g>
<g><path style="opacity:1" fill="#f6f6f6" d="M 123.5,397.5 C 130.231,396.448 134.731,399.114 137,405.5C 139.357,411.941 138.857,418.108 135.5,424C 133.5,424.667 131.5,424.667 129.5,424C 120.902,416.458 118.902,407.625 123.5,397.5 Z"/></g>
<g><path style="opacity:1" fill="#0f0f0f" d="M 148.5,394.5 C 151.625,393.521 154.958,393.187 158.5,393.5C 159.558,403.14 161.224,412.64 163.5,422C 164.5,422.667 165.5,422.667 166.5,422C 170.225,417.592 171.892,412.425 171.5,406.5C 171.333,404.5 171.167,402.5 171,400.5C 167.374,399.605 164.54,397.605 162.5,394.5C 166.795,393.339 171.129,393.172 175.5,394C 178.621,404.068 177.121,413.568 171,422.5C 167.338,427.682 162.505,431.016 156.5,432.5C 156.47,422.708 155.303,413.041 153,403.5C 152.528,399.89 151.028,396.89 148.5,394.5 Z"/></g>
<g><path style="opacity:1" fill="#0f0f0f" d="M 187.5,393.5 C 193.833,393.5 200.167,393.5 206.5,393.5C 206.945,396.365 206.278,398.865 204.5,401C 198.252,401.188 192.085,401.688 186,402.5C 185.08,405.308 185.913,407.475 188.5,409C 193.204,409.648 197.871,409.481 202.5,408.5C 202.739,410.467 202.406,412.301 201.5,414C 196.499,414.251 191.499,414.084 186.5,413.5C 188.111,420.755 192.778,424.422 200.5,424.5C 203.191,424.321 205.525,423.321 207.5,421.5C 208.706,423.484 208.706,425.484 207.5,427.5C 198.724,434.795 190.891,433.795 184,424.5C 180.035,413.473 181.201,403.14 187.5,393.5 Z"/></g>
<g><path style="opacity:1" fill="#0f0f0f" d="M 264.5,393.5 C 270.842,393.334 277.175,393.5 283.5,394C 282.692,396.088 281.692,398.088 280.5,400C 274.833,400.242 269.167,400.075 263.5,399.5C 263.549,402.099 264.549,404.266 266.5,406C 272.361,408.18 277.861,411.013 283,414.5C 285.34,428.161 279.84,433.661 266.5,431C 263.42,429.289 262.254,426.789 263,423.5C 263.414,423.043 263.914,422.709 264.5,422.5C 268.396,429.08 272.063,429.08 275.5,422.5C 275.363,420.893 274.696,419.559 273.5,418.5C 268.695,416.008 264.528,412.675 261,408.5C 259.75,405.923 259.416,403.257 260,400.5C 261.723,398.283 263.223,395.95 264.5,393.5 Z"/></g>
<g><path style="opacity:1" fill="#111111" d="M 288.5,393.5 C 293.875,393.172 299.208,393.505 304.5,394.5C 303.372,395.262 302.205,395.929 301,396.5C 300.311,402.882 300.645,409.215 302,415.5C 302.368,416.91 303.201,417.91 304.5,418.5C 307.464,413.295 310.131,407.962 312.5,402.5C 314.552,405.488 315.719,408.821 316,412.5C 317.167,414.167 318.333,415.833 319.5,417.5C 320.365,418.583 321.365,418.749 322.5,418C 325.543,412.116 326.209,405.95 324.5,399.5C 321.375,399.135 318.375,398.302 315.5,397C 314.663,395.989 314.33,394.822 314.5,393.5C 319.179,393.334 323.845,393.501 328.5,394C 329,394.5 329.5,395 330,395.5C 330.667,399.5 330.667,403.5 330,407.5C 326.922,415.657 324.422,423.99 322.5,432.5C 321.167,431.5 319.833,430.5 318.5,429.5C 315.801,425.81 313.135,422.143 310.5,418.5C 307.89,424.405 303.89,429.072 298.5,432.5C 297.184,418.9 293.851,405.9 288.5,393.5 Z"/></g>
<g><path style="opacity:1" fill="#a0a0a0" d="M 364.5,429.5 C 365.404,430.209 365.737,431.209 365.5,432.5C 361.116,432.826 356.783,432.492 352.5,431.5C 352.624,430.893 352.957,430.56 353.5,430.5C 355.134,431.161 356.967,431.494 359,431.5C 361.295,431.453 363.129,430.787 364.5,429.5 Z"/></g>
</svg>