
<svg xmlns="http://www.w3.org/2000/svg" version="1.1" width="500px" height="500px" style="shape-rendering:geometricPrecision; text-rendering:geometricPrecision; image-rendering:optimizeQuality; fill-rule:evenodd; clip-rule:evenodd" xmlns:xlink="http://www.w3.org/1999/xlink">
<g><path style="opacity:1" fill="#1d1a1a" d="M 301.5,115.5 C 297.198,113.203 292.532,112.036 287.5,112C 288.416,111.722 289.082,111.222 289.5,110.5C 289.204,108.597 288.537,106.93 287.5,105.5C 286.616,100.065 283.949,95.7314 279.5,92.5C 276.44,88.6885 272.44,86.3552 267.5,85.5C 257.121,82.0499 247.121,83.2166 237.5,89C 235.21,90.7772 233.543,92.9438 232.5,95.5C 230.926,95.9371 229.759,96.9371 229,98.5C 227.241,102.009 226.074,105.675 225.5,109.5C 225.5,109.833 225.5,110.167 225.5,110.5C 223.242,110.225 222.908,109.225 224.5,107.5C 224.108,105.129 223.108,104.462 221.5,105.5C 222.436,100.962 224.436,96.9618 227.5,93.5C 229.587,92.4154 230.92,90.7488 231.5,88.5C 247.636,75.7096 264.303,75.2096 281.5,87C 288.57,93.3047 292.903,101.138 294.5,110.5C 298.931,109.53 301.265,111.197 301.5,115.5 Z"/></g>
<g><path style="opacity:1" fill="#c98335" d="M 267.5,85.5 C 254.178,83.1791 242.511,86.5124 232.5,95.5C 233.543,92.9438 235.21,90.7772 237.5,89C 247.121,83.2166 257.121,82.0499 267.5,85.5 Z"/></g>
<g><path style="opacity:0.435" fill="#807d80" d="M 231.5,88.5 C 230.92,90.7488 229.587,92.4154 227.5,93.5C 228.08,91.2512 229.413,89.5846 231.5,88.5 Z"/></g>
<g><path style="opacity:1" fill="#c47c2c" d="M 279.5,92.5 C 283.949,95.7314 286.616,100.065 287.5,105.5C 286.531,102.977 284.865,100.977 282.5,99.5C 281.645,97.045 280.645,94.7117 279.5,92.5 Z"/></g>
<g><path style="opacity:1" fill="#f29224" d="M 267.5,85.5 C 272.44,86.3552 276.44,88.6885 279.5,92.5C 280.645,94.7117 281.645,97.045 282.5,99.5C 284.865,100.977 286.531,102.977 287.5,105.5C 287.5,106.833 287.5,108.167 287.5,109.5C 278.5,109.5 269.5,109.5 260.5,109.5C 262.167,106.5 263.833,103.5 265.5,100.5C 267.113,97.8682 268.78,95.2016 270.5,92.5C 269.635,91.4173 268.635,91.2506 267.5,92C 266.167,94.1906 264.5,96.024 262.5,97.5C 260.824,96.8166 260.157,95.4832 260.5,93.5C 259.448,93.6495 258.448,93.4828 257.5,93C 259.25,91.2458 259.917,89.0792 259.5,86.5C 258.5,86.5 257.5,86.5 256.5,86.5C 254.83,86.7512 253.33,87.4178 252,88.5C 248.909,93.0137 245.575,97.347 242,101.5C 241.251,102.635 241.417,103.635 242.5,104.5C 244.897,102.425 247.231,100.425 249.5,98.5C 250.614,101.008 249.947,103.175 247.5,105C 249.218,105.346 250.885,105.846 252.5,106.5C 253.934,105.412 254.934,104.078 255.5,102.5C 255.5,102.167 255.5,101.833 255.5,101.5C 257.369,103.635 258.036,106.302 257.5,109.5C 246.833,109.5 236.167,109.5 225.5,109.5C 226.074,105.675 227.241,102.009 229,98.5C 229.759,96.9371 230.926,95.9371 232.5,95.5C 242.511,86.5124 254.178,83.1791 267.5,85.5 Z"/></g>
<g><path style="opacity:1" fill="#d2832b" d="M 256.5,86.5 C 257.5,86.5 258.5,86.5 259.5,86.5C 259.917,89.0792 259.25,91.2458 257.5,93C 258.448,93.4828 259.448,93.6495 260.5,93.5C 260.157,95.4832 260.824,96.8166 262.5,97.5C 261.343,99.1376 260.176,100.804 259,102.5C 258.219,103.944 258.386,105.277 259.5,106.5C 261.161,104.173 263.161,102.173 265.5,100.5C 263.833,103.5 262.167,106.5 260.5,109.5C 259.5,109.5 258.5,109.5 257.5,109.5C 258.036,106.302 257.369,103.635 255.5,101.5C 257.7,99.4768 258.367,97.1435 257.5,94.5C 253.467,96.4585 251.8,99.4585 252.5,103.5C 253.417,102.873 254.417,102.539 255.5,102.5C 254.934,104.078 253.934,105.412 252.5,106.5C 250.885,105.846 249.218,105.346 247.5,105C 249.947,103.175 250.614,101.008 249.5,98.5C 250.667,94.853 252.834,91.853 256,89.5C 256.483,88.552 256.649,87.552 256.5,86.5 Z"/></g>
<g><path style="opacity:1" fill="#26160a" d="M 255.5,101.5 C 255.5,101.833 255.5,102.167 255.5,102.5C 254.417,102.539 253.417,102.873 252.5,103.5C 251.8,99.4585 253.467,96.4585 257.5,94.5C 258.367,97.1435 257.7,99.4768 255.5,101.5 Z"/></g>
<g><path style="opacity:1" fill="#1c0f08" d="M 265.5,100.5 C 263.161,102.173 261.161,104.173 259.5,106.5C 258.386,105.277 258.219,103.944 259,102.5C 260.176,100.804 261.343,99.1376 262.5,97.5C 264.5,96.024 266.167,94.1906 267.5,92C 268.635,91.2506 269.635,91.4173 270.5,92.5C 268.78,95.2016 267.113,97.8682 265.5,100.5 Z"/></g>
<g><path style="opacity:1" fill="#201108" d="M 256.5,86.5 C 256.649,87.552 256.483,88.552 256,89.5C 252.834,91.853 250.667,94.853 249.5,98.5C 247.231,100.425 244.897,102.425 242.5,104.5C 241.417,103.635 241.251,102.635 242,101.5C 245.575,97.347 248.909,93.0137 252,88.5C 253.33,87.4178 254.83,86.7512 256.5,86.5 Z"/></g>
<g><path style="opacity:0.222" fill="#b0b0b0" d="M 220.5,108.5 C 218.721,110.344 216.388,111.01 213.5,110.5C 215.715,109.732 218.048,109.065 220.5,108.5 Z"/></g>
<g><path style="opacity:1" fill="#9c6932" d="M 287.5,105.5 C 288.537,106.93 289.204,108.597 289.5,110.5C 268.167,110.5 246.833,110.5 225.5,110.5C 225.5,110.167 225.5,109.833 225.5,109.5C 236.167,109.5 246.833,109.5 257.5,109.5C 258.5,109.5 259.5,109.5 260.5,109.5C 269.5,109.5 278.5,109.5 287.5,109.5C 287.5,108.167 287.5,106.833 287.5,105.5 Z"/></g>
<g><path style="opacity:0.329" fill="#b0afaf" d="M 212.5,112.5 C 212.843,114.483 212.176,115.817 210.5,116.5C 210.989,115.005 211.655,113.671 212.5,112.5 Z"/></g>
<g><path style="opacity:1" fill="#0b0e0c" d="M 225.5,110.5 C 246.833,110.5 268.167,110.5 289.5,110.5C 289.082,111.222 288.416,111.722 287.5,112C 292.532,112.036 297.198,113.203 301.5,115.5C 301.5,115.833 301.5,116.167 301.5,116.5C 307.346,117.167 313.346,117.833 319.5,118.5C 316.833,118.833 314.167,119.167 311.5,119.5C 276.835,120.111 242.169,120.778 207.5,121.5C 204.694,122.168 202.028,122.834 199.5,123.5C 188.828,123.333 178.161,123.5 167.5,124C 164.667,125.5 162.5,127.667 161,130.5C 160.168,182.002 160.335,233.335 161.5,284.5C 161.5,285.833 161.5,287.167 161.5,288.5C 160.732,287.737 160.232,286.737 160,285.5C 159.667,238.167 159.333,190.833 159,143.5C 158.333,139.5 157.667,139.5 157,143.5C 156.721,140.543 155.887,137.877 154.5,135.5C 154.181,127.971 157.181,122.138 163.5,118C 179.123,116.599 194.79,116.099 210.5,116.5C 212.176,115.817 212.843,114.483 212.5,112.5C 212.328,111.508 212.662,110.842 213.5,110.5C 216.388,111.01 218.721,110.344 220.5,108.5C 220.263,107.209 220.596,106.209 221.5,105.5C 223.108,104.462 224.108,105.129 224.5,107.5C 222.908,109.225 223.242,110.225 225.5,110.5 Z"/></g>
<g><path style="opacity:0.894" fill="#717271" d="M 346.5,118.5 C 348.754,119.124 350.421,120.457 351.5,122.5C 349.205,121.864 347.539,120.531 346.5,118.5 Z"/></g>
<g><path style="opacity:0.608" fill="#838383" d="M 351.5,122.5 C 353.262,123.262 354.262,124.596 354.5,126.5C 352.738,125.738 351.738,124.404 351.5,122.5 Z"/></g>
<g><path style="opacity:1" fill="#59ae9c" d="M 330.5,131.5 C 333.479,136.11 336.479,140.777 339.5,145.5C 340.429,144.311 340.762,142.978 340.5,141.5C 341.451,142.919 341.784,144.585 341.5,146.5C 340.5,146.5 339.5,146.5 338.5,146.5C 338.674,148.861 339.007,151.194 339.5,153.5C 331.563,135.861 317.896,128.694 298.5,132C 276.685,143.449 271.852,159.949 284,181.5C 287.609,186.308 292.109,189.642 297.5,191.5C 294.351,191.789 291.351,191.289 288.5,190C 285.07,187.61 282.57,184.443 281,180.5C 281.035,184.245 280.035,184.912 278,182.5C 277.727,180.899 277.227,179.399 276.5,178C 277.624,177.161 278.291,175.994 278.5,174.5C 277.173,169.592 276.173,164.592 275.5,159.5C 274.914,159.291 274.414,158.957 274,158.5C 273.206,161.471 272.539,164.471 272,167.5C 270.442,166.655 269.442,167.321 269,169.5C 267.102,175.737 267.769,181.737 271,187.5C 272.77,186.724 274.603,186.89 276.5,188C 277.337,189.011 277.67,190.178 277.5,191.5C 275.508,191.672 273.842,191.005 272.5,189.5C 271.571,190.689 271.238,192.022 271.5,193.5C 268.203,185.316 265.036,176.982 262,168.5C 258.092,164.542 254.259,164.542 250.5,168.5C 250.5,167.167 250.5,165.833 250.5,164.5C 254.169,165.303 256.836,164.136 258.5,161C 259.448,160.517 260.448,160.351 261.5,160.5C 261.281,161.675 261.614,162.675 262.5,163.5C 263.711,162.726 263.711,161.893 262.5,161C 263,160.5 263.5,160 264,159.5C 264.176,156.118 264.676,152.785 265.5,149.5C 266.141,148.007 267.141,147.007 268.5,146.5C 266.3,152.708 265.967,159.041 267.5,165.5C 268.5,165.5 269.5,165.5 270.5,165.5C 269.913,151.91 274.58,140.577 284.5,131.5C 284.167,131.167 283.833,130.833 283.5,130.5C 281.999,131.752 280.332,132.752 278.5,133.5C 277.145,135.521 275.479,137.188 273.5,138.5C 273.5,137.167 273.5,135.833 273.5,134.5C 274.5,134.5 275.5,134.5 276.5,134.5C 276.234,130.921 274.901,130.587 272.5,133.5C 272.167,133.167 271.833,132.833 271.5,132.5C 273.005,131.158 273.672,129.492 273.5,127.5C 267.491,127.334 261.491,127.501 255.5,128C 254.167,130 252.833,130 251.5,128C 245.353,127.716 239.353,127.549 233.5,127.5C 232.5,127.833 231.5,128.167 230.5,128.5C 232.045,129.452 233.712,129.785 235.5,129.5C 235.351,130.552 235.517,131.552 236,132.5C 237.627,133.532 238.793,134.866 239.5,136.5C 235.862,134.01 232.195,131.51 228.5,129C 227.668,128.312 227.002,128.479 226.5,129.5C 238.072,138.981 244.072,151.314 244.5,166.5C 245.986,163.717 246.653,160.717 246.5,157.5C 246.325,152.645 245.325,147.979 243.5,143.5C 244.85,144.483 245.85,145.816 246.5,147.5C 247.495,153.128 247.829,158.794 247.5,164.5C 246.874,166.626 245.541,168.293 243.5,169.5C 242.833,166.833 242.167,164.167 241.5,161.5C 240.313,162.894 239.646,162.727 239.5,161C 241.227,157.087 240.727,153.587 238,150.5C 238.484,156.795 238.484,163.129 238,169.5C 236.878,171.42 236.044,173.42 235.5,175.5C 233.876,175.64 232.71,174.973 232,173.5C 231.292,174.381 230.458,175.047 229.5,175.5C 237.399,144.723 225.399,129.389 193.5,129.5C 193.611,128.883 193.944,128.383 194.5,128C 210.813,126.954 227.146,126.454 243.5,126.5C 256.118,126.529 268.618,127.196 281,128.5C 282.059,128.37 282.892,127.87 283.5,127C 290.167,126.333 296.833,126.333 303.5,127C 301.729,127.535 301.396,128.369 302.5,129.5C 312.059,127.597 321.726,126.597 331.5,126.5C 331.5,127.5 331.5,128.5 331.5,129.5C 328.846,128.658 326.179,128.158 323.5,128C 325.527,129.879 327.86,131.046 330.5,131.5 Z"/></g>
<g><path style="opacity:0.986" fill="#0e1514" d="M 301.5,116.5 C 315.171,116.333 328.837,116.5 342.5,117C 343.901,117.41 345.234,117.91 346.5,118.5C 347.539,120.531 349.205,121.864 351.5,122.5C 351.738,124.404 352.738,125.738 354.5,126.5C 355.222,126.918 355.722,127.584 356,128.5C 356.5,152.498 356.667,176.498 356.5,200.5C 356.543,204.893 356.043,205.226 355,201.5C 354.5,202.667 353.667,203.5 352.5,204C 355.044,205.099 355.044,206.265 352.5,207.5C 351.513,210.768 351.18,214.102 351.5,217.5C 354.365,217.945 356.865,217.278 359,215.5C 360.32,215.799 361.82,215.966 363.5,216C 362.833,216.333 362.167,216.667 361.5,217C 361.165,218.164 361.165,219.497 361.5,221C 360.584,221.278 359.918,221.778 359.5,222.5C 358.167,222.5 356.833,222.5 355.5,222.5C 355.5,243.5 355.5,264.5 355.5,285.5C 355.34,287.153 354.674,288.486 353.5,289.5C 352.094,289.973 351.427,290.973 351.5,292.5C 348.89,296.307 345.223,298.307 340.5,298.5C 341.666,296.834 341.666,295.167 340.5,293.5C 293.542,294.495 246.542,294.828 199.5,294.5C 189.494,294.666 179.494,294.5 169.5,294C 168.584,293.722 167.918,293.222 167.5,292.5C 224.834,292.667 282.168,292.5 339.5,292C 341.653,291.901 343.319,291.067 344.5,289.5C 346.504,288.327 348.004,286.66 349,284.5C 349.833,232.163 349.667,179.83 348.5,127.5C 346.507,125.501 344.173,124.001 341.5,123C 326.17,122.889 310.836,123.055 295.5,123.5C 263.5,123.5 231.5,123.5 199.5,123.5C 202.028,122.834 204.694,122.168 207.5,121.5C 242.169,120.778 276.835,120.111 311.5,119.5C 314.167,119.167 316.833,118.833 319.5,118.5C 313.346,117.833 307.346,117.167 301.5,116.5 Z"/></g>
<g><path style="opacity:1" fill="#57a695" d="M 199.5,123.5 C 231.5,123.5 263.5,123.5 295.5,123.5C 260.994,124.257 226.328,125.091 191.5,126C 189.167,126.333 186.833,126.667 184.5,127C 187.107,129.105 190.107,129.938 193.5,129.5C 172.554,138.417 166.054,153.75 174,175.5C 178.068,181.07 182.902,185.737 188.5,189.5C 187.07,189.579 185.736,189.246 184.5,188.5C 183.824,189.602 183.158,190.602 182.5,191.5C 179.245,188.083 175.745,184.75 172,181.5C 170.667,178.833 169.333,176.167 168,173.5C 167.329,172.748 166.496,172.414 165.5,172.5C 165.756,170.208 165.423,168.041 164.5,166C 165,165.5 165.5,165 166,164.5C 167.011,165.337 168.178,165.67 169.5,165.5C 169.829,159.794 169.495,154.128 168.5,148.5C 167.775,152.255 166.775,155.922 165.5,159.5C 164.014,154.509 164.347,149.676 166.5,145C 166.355,144.228 166.022,143.561 165.5,143C 166.691,142.302 167.691,141.469 168.5,140.5C 168.238,141.978 168.571,143.311 169.5,144.5C 172.288,138.624 176.288,133.624 181.5,129.5C 180.833,129.167 180.167,128.833 179.5,128.5C 174.784,131.216 171.118,134.882 168.5,139.5C 168.421,138.07 168.754,136.736 169.5,135.5C 169.192,134.692 168.692,134.025 168,133.5C 166.249,135.49 165.249,137.823 165,140.5C 164.333,141.833 163.667,141.833 163,140.5C 162.674,168.173 162.174,195.84 161.5,223.5C 161.5,243.833 161.5,264.167 161.5,284.5C 160.335,233.335 160.168,182.002 161,130.5C 162.5,127.667 164.667,125.5 167.5,124C 178.161,123.5 188.828,123.333 199.5,123.5 Z"/></g>
<g><path style="opacity:1" fill="#0c1917" d="M 168.5,140.5 C 168.5,140.167 168.5,139.833 168.5,139.5C 171.118,134.882 174.784,131.216 179.5,128.5C 180.167,128.833 180.833,129.167 181.5,129.5C 176.288,133.624 172.288,138.624 169.5,144.5C 168.571,143.311 168.238,141.978 168.5,140.5 Z"/></g>
<g><path style="opacity:1" fill="#dbd1d1" d="M 437.5,178.5 C 434.719,181.736 431.719,184.736 428.5,187.5C 419.409,192.726 410.242,192.726 401,187.5C 399.743,187.85 399.409,188.517 400,189.5C 402.293,191.372 404.793,192.872 407.5,194C 398.449,195.622 392.283,192.122 389,183.5C 388.245,180.697 388.578,178.03 390,175.5C 391.141,177.609 392.641,179.442 394.5,181C 395.635,181.749 396.635,181.583 397.5,180.5C 395.601,177.372 394.267,174.038 393.5,170.5C 395.174,165.822 396.841,161.155 398.5,156.5C 399.833,154.167 399.833,151.833 398.5,149.5C 398.114,147.063 396.947,145.063 395,143.5C 392.662,134.175 396.162,130.341 405.5,132C 406.701,132.903 407.535,134.069 408,135.5C 408.719,140.201 408.553,144.867 407.5,149.5C 408,151.5 408.5,153.5 409,155.5C 416.358,160.852 421.358,167.852 424,176.5C 427.838,181.748 431.671,181.748 435.5,176.5C 433.219,175.815 430.886,175.649 428.5,176C 427.065,173.733 427.398,171.733 429.5,170C 432.482,169.502 435.482,169.335 438.5,169.5C 438.736,172.609 438.403,175.609 437.5,178.5 Z"/></g>
<g><path style="opacity:1" fill="#0a1615" d="M 330.5,131.5 C 335.465,133.131 338.798,136.465 340.5,141.5C 340.762,142.978 340.429,144.311 339.5,145.5C 336.479,140.777 333.479,136.11 330.5,131.5 Z"/></g>
<g><path style="opacity:1" fill="#57b6a2" d="M 273.5,138.5 C 272.229,141.433 270.562,144.099 268.5,146.5C 267.141,147.007 266.141,148.007 265.5,149.5C 264.676,152.785 264.176,156.118 264,159.5C 263.5,160 263,160.5 262.5,161C 263.711,161.893 263.711,162.726 262.5,163.5C 261.614,162.675 261.281,161.675 261.5,160.5C 260.448,160.351 259.448,160.517 258.5,161C 256.836,164.136 254.169,165.303 250.5,164.5C 250.5,165.833 250.5,167.167 250.5,168.5C 250.5,169.167 250.167,169.5 249.5,169.5C 249.923,167.219 249.256,165.552 247.5,164.5C 247.829,158.794 247.495,153.128 246.5,147.5C 245.85,145.816 244.85,144.483 243.5,143.5C 242.194,141.184 240.861,138.85 239.5,136.5C 238.793,134.866 237.627,133.532 236,132.5C 235.517,131.552 235.351,130.552 235.5,129.5C 233.712,129.785 232.045,129.452 230.5,128.5C 231.5,128.167 232.5,127.833 233.5,127.5C 239.353,127.549 245.353,127.716 251.5,128C 252.833,130 254.167,130 255.5,128C 261.491,127.501 267.491,127.334 273.5,127.5C 273.672,129.492 273.005,131.158 271.5,132.5C 271.833,132.833 272.167,133.167 272.5,133.5C 274.901,130.587 276.234,130.921 276.5,134.5C 275.5,134.5 274.5,134.5 273.5,134.5C 273.5,135.833 273.5,137.167 273.5,138.5 Z"/></g>
<g><path style="opacity:0.992" fill="#595858" d="M 393.5,148.5 C 395.042,149.301 396.708,149.634 398.5,149.5C 399.833,151.833 399.833,154.167 398.5,156.5C 398.5,154.5 398.5,152.5 398.5,150.5C 397.5,150.5 396.5,150.5 395.5,150.5C 395.5,151.5 395.5,152.5 395.5,153.5C 394.463,152.07 393.796,150.403 393.5,148.5 Z"/></g>
<g><path style="opacity:0.996" fill="#464646" d="M 431.5,147.5 C 433.229,148.117 434.729,149.117 436,150.5C 436.872,153.361 438.038,156.028 439.5,158.5C 436.916,157.952 435.916,156.285 436.5,153.5C 435.5,153.5 434.5,153.5 433.5,153.5C 433.5,154.833 433.5,156.167 433.5,157.5C 432.167,157.5 430.833,157.5 429.5,157.5C 430.209,156.596 431.209,156.263 432.5,156.5C 432.5,155.5 432.5,154.5 432.5,153.5C 432.33,152.178 432.663,151.011 433.5,150C 432.244,149.583 431.577,148.75 431.5,147.5 Z"/></g>
<g><path style="opacity:1" fill="#07100d" d="M 239.5,136.5 C 240.861,138.85 242.194,141.184 243.5,143.5C 245.325,147.979 246.325,152.645 246.5,157.5C 246.653,160.717 245.986,163.717 244.5,166.5C 244.072,151.314 238.072,138.981 226.5,129.5C 227.002,128.479 227.668,128.312 228.5,129C 232.195,131.51 235.862,134.01 239.5,136.5 Z"/></g>
<g><path style="opacity:1" fill="#0a1514" d="M 268.5,146.5 C 270.562,144.099 272.229,141.433 273.5,138.5C 275.479,137.188 277.145,135.521 278.5,133.5C 280.332,132.752 281.999,131.752 283.5,130.5C 283.833,130.833 284.167,131.167 284.5,131.5C 274.58,140.577 269.913,151.91 270.5,165.5C 269.5,165.5 268.5,165.5 267.5,165.5C 265.967,159.041 266.3,152.708 268.5,146.5 Z"/></g>
<g><path style="opacity:1" fill="#1b1919" d="M 431.5,147.5 C 431.577,148.75 432.244,149.583 433.5,150C 432.663,151.011 432.33,152.178 432.5,153.5C 424.544,149.309 420.378,151.642 420,160.5C 420.308,161.308 420.808,161.975 421.5,162.5C 423.67,159.988 426.337,158.321 429.5,157.5C 430.833,157.5 432.167,157.5 433.5,157.5C 433.5,156.167 433.5,154.833 433.5,153.5C 434.5,153.5 435.5,153.5 436.5,153.5C 435.916,156.285 436.916,157.952 439.5,158.5C 440.117,158.611 440.617,158.944 441,159.5C 441.769,162.099 441.602,164.599 440.5,167C 442.155,168.444 442.822,170.278 442.5,172.5C 441.659,174.379 441.325,176.379 441.5,178.5C 441.672,179.492 441.338,180.158 440.5,180.5C 438.632,181.674 437.632,181.007 437.5,178.5C 438.403,175.609 438.736,172.609 438.5,169.5C 435.482,169.335 432.482,169.502 429.5,170C 427.398,171.733 427.065,173.733 428.5,176C 430.886,175.649 433.219,175.815 435.5,176.5C 431.671,181.748 427.838,181.748 424,176.5C 421.358,167.852 416.358,160.852 409,155.5C 408.5,153.5 408,151.5 407.5,149.5C 408.553,144.867 408.719,140.201 408,135.5C 407.535,134.069 406.701,132.903 405.5,132C 396.162,130.341 392.662,134.175 395,143.5C 396.947,145.063 398.114,147.063 398.5,149.5C 396.708,149.634 395.042,149.301 393.5,148.5C 388.962,142.908 388.462,136.908 392,130.5C 400.248,124.247 406.914,125.581 412,134.5C 412.494,136.134 412.66,137.801 412.5,139.5C 418.938,136.325 424.938,136.991 430.5,141.5C 431.785,143.577 432.118,145.577 431.5,147.5 Z"/></g>
<g><path style="opacity:1" fill="#d5cccc" d="M 432.5,153.5 C 432.5,154.5 432.5,155.5 432.5,156.5C 431.209,156.263 430.209,156.596 429.5,157.5C 426.337,158.321 423.67,159.988 421.5,162.5C 420.808,161.975 420.308,161.308 420,160.5C 420.378,151.642 424.544,149.309 432.5,153.5 Z"/></g>
<g><path style="opacity:1" fill="#d4cacb" d="M 418.5,141.5 C 423.55,140.835 426.55,142.835 427.5,147.5C 421.801,147.766 417.635,150.433 415,155.5C 411.894,153.658 410.894,150.992 412,147.5C 413.436,144.558 415.603,142.558 418.5,141.5 Z"/></g>
<g><path style="opacity:1" fill="#1b1717" d="M 409.5,164.5 C 411.722,164.559 412.722,165.725 412.5,168C 411.855,171.468 410.189,174.302 407.5,176.5C 407.167,176.167 406.833,175.833 406.5,175.5C 408.584,172.169 409.584,168.503 409.5,164.5 Z"/></g>
<g><path style="opacity:1" fill="#cac2c2" d="M 429.5,160.5 C 432.187,160.336 434.854,160.503 437.5,161C 438.38,162.356 438.714,163.856 438.5,165.5C 433.796,164.962 429.462,165.962 425.5,168.5C 424.167,166.833 424.167,165.167 425.5,163.5C 426.901,162.479 428.235,161.479 429.5,160.5 Z"/></g>
<g><path style="opacity:1" fill="#59b19e" d="M 344.5,289.5 C 345.648,286.265 346.815,282.932 348,279.5C 348.667,247.167 348.667,214.833 348,182.5C 347.821,185.553 347.321,188.553 346.5,191.5C 346.167,191.333 345.833,191.167 345.5,191C 345.024,186.58 344.857,182.08 345,177.5C 344.617,178.056 344.117,178.389 343.5,178.5C 343.785,176.712 343.452,175.045 342.5,173.5C 338.881,181.114 333.548,187.114 326.5,191.5C 328.045,192.452 329.712,192.785 331.5,192.5C 330.726,193.147 329.726,193.48 328.5,193.5C 326.153,192.474 323.82,191.474 321.5,190.5C 336.25,182.652 342.25,170.319 339.5,153.5C 339.007,151.194 338.674,148.861 338.5,146.5C 339.5,146.5 340.5,146.5 341.5,146.5C 341.784,144.585 341.451,142.919 340.5,141.5C 338.798,136.465 335.465,133.131 330.5,131.5C 327.86,131.046 325.527,129.879 323.5,128C 326.179,128.158 328.846,128.658 331.5,129.5C 331.5,128.5 331.5,127.5 331.5,126.5C 321.726,126.597 312.059,127.597 302.5,129.5C 301.396,128.369 301.729,127.535 303.5,127C 296.833,126.333 290.167,126.333 283.5,127C 282.892,127.87 282.059,128.37 281,128.5C 268.618,127.196 256.118,126.529 243.5,126.5C 227.146,126.454 210.813,126.954 194.5,128C 193.944,128.383 193.611,128.883 193.5,129.5C 190.107,129.938 187.107,129.105 184.5,127C 186.833,126.667 189.167,126.333 191.5,126C 226.328,125.091 260.994,124.257 295.5,123.5C 310.836,123.055 326.17,122.889 341.5,123C 344.173,124.001 346.507,125.501 348.5,127.5C 349.667,179.83 349.833,232.163 349,284.5C 348.004,286.66 346.504,288.327 344.5,289.5 Z"/></g>
<g><path style="opacity:0.361" fill="#8f8f8f" d="M 390.5,167.5 C 391.092,170.631 390.092,172.964 387.5,174.5C 388.656,172.176 389.656,169.843 390.5,167.5 Z"/></g>
<g><path style="opacity:0.949" fill="#747474" d="M 442.5,172.5 C 443.014,173.625 443.347,174.791 443.5,176C 442.934,176.995 442.267,177.828 441.5,178.5C 441.325,176.379 441.659,174.379 442.5,172.5 Z"/></g>
<g><path style="opacity:1" fill="#0f0e0c" d="M 339.5,153.5 C 342.25,170.319 336.25,182.652 321.5,190.5C 313.576,192.662 305.576,192.995 297.5,191.5C 292.109,189.642 287.609,186.308 284,181.5C 271.852,159.949 276.685,143.449 298.5,132C 317.896,128.694 331.563,135.861 339.5,153.5 Z"/></g>
<g><path style="opacity:1" fill="#1e140f" d="M 332.5,165.5 C 326.445,183.203 314.445,189.036 296.5,183C 286.804,175.41 283.137,165.577 285.5,153.5C 292.704,139.145 304.037,134.645 319.5,140C 329.244,145.727 333.577,154.227 332.5,165.5 Z"/></g>
<g><path style="opacity:1" fill="#cdc5b2" d="M 309.5,144.5 C 310.434,143.432 310.768,142.099 310.5,140.5C 311.5,140.5 312.5,140.5 313.5,140.5C 314.5,140.5 315.5,140.5 316.5,140.5C 316.338,142.527 316.505,144.527 317,146.5C 317.219,145.062 317.719,143.729 318.5,142.5C 320.923,143.712 321.923,145.712 321.5,148.5C 321.34,150.199 321.506,151.866 322,153.5C 322.216,151.616 322.883,149.949 324,148.5C 324.667,149.167 325.333,149.833 326,150.5C 326.333,153.167 326.667,155.833 327,158.5C 327.2,156.68 328.034,155.347 329.5,154.5C 330.82,159.937 330.487,165.27 328.5,170.5C 327.681,167.695 327.181,164.695 327,161.5C 325.991,163.025 325.491,164.692 325.5,166.5C 325.665,169.518 325.498,172.518 325,175.5C 324.092,177.439 322.592,178.439 320.5,178.5C 320.665,175.482 320.498,172.482 320,169.5C 319.358,173.491 318.858,177.491 318.5,181.5C 317.5,181.5 316.5,181.5 315.5,181.5C 315.799,179.396 315.466,177.396 314.5,175.5C 313.526,177.743 313.192,180.076 313.5,182.5C 309.723,182.945 305.723,182.945 301.5,182.5C 301.669,177.959 301.002,177.626 299.5,181.5C 297.247,180.747 295.413,179.414 294,177.5C 293.828,172.798 293.328,168.132 292.5,163.5C 290.841,176.559 289.674,176.225 289,162.5C 288.667,164.167 288.333,165.833 288,167.5C 286,162.833 286,158.167 288,153.5C 288.333,154.833 288.667,156.167 289,157.5C 288.58,152.648 290.08,148.648 293.5,145.5C 294.281,146.729 294.781,148.062 295,149.5C 294.328,144.924 296.161,142.257 300.5,141.5C 300.238,142.978 300.571,144.311 301.5,145.5C 302.452,143.955 302.785,142.288 302.5,140.5C 304.379,139.659 306.379,139.325 308.5,139.5C 308.216,141.415 308.549,143.081 309.5,144.5 Z"/></g>
<g><path style="opacity:1" fill="#5f5552" d="M 328.5,170.5 C 328.217,171.289 327.717,171.956 327,172.5C 326.809,170.292 326.309,168.292 325.5,166.5C 325.491,164.692 325.991,163.025 327,161.5C 327.181,164.695 327.681,167.695 328.5,170.5 Z"/></g>
<g><path style="opacity:1" fill="#271e13" d="M 301.5,148.5 C 303.39,148.297 304.89,148.963 306,150.5C 308.06,156.322 308.893,162.322 308.5,168.5C 309.675,168.719 310.675,168.386 311.5,167.5C 313.313,163.664 313.813,159.664 313,155.5C 306.036,152.047 306.203,150.047 313.5,149.5C 315.964,149.59 318.13,150.257 320,151.5C 320.381,161.022 317.214,169.189 310.5,176C 308.147,177.964 305.647,178.464 303,177.5C 302.76,168.131 300.926,159.131 297.5,150.5C 298.949,149.828 300.282,149.161 301.5,148.5 Z"/></g>
<g><path style="opacity:1" fill="#7c6f51" d="M 315.5,162.5 C 315.328,163.492 315.662,164.158 316.5,164.5C 315.404,167.032 314.071,169.365 312.5,171.5C 312.5,170.833 312.167,170.5 311.5,170.5C 313.033,167.882 314.366,165.216 315.5,162.5 Z"/></g>
<g><path style="opacity:1" fill="#c6ab61" d="M 316.5,164.5 C 315.662,164.158 315.328,163.492 315.5,162.5C 316.648,157.561 314.981,154.061 310.5,152C 312.556,151.689 314.556,151.189 316.5,150.5C 317.086,150.709 317.586,151.043 318,151.5C 318.578,155.956 318.078,160.289 316.5,164.5 Z"/></g>
<g><path style="opacity:1" fill="#c8aa5f" d="M 311.5,170.5 C 312.167,170.5 312.5,170.833 312.5,171.5C 310.47,174.182 307.803,175.849 304.5,176.5C 304.09,169.126 303.256,161.793 302,154.5C 298.453,150.663 299.286,149.663 304.5,151.5C 305.806,156.744 306.639,162.077 307,167.5C 307.589,169.863 309.089,170.863 311.5,170.5 Z"/></g>
<g><path style="opacity:1" fill="#8f867b" d="M 329.5,154.5 C 328.034,155.347 327.2,156.68 327,158.5C 326.667,155.833 326.333,153.167 326,150.5C 325.333,149.833 324.667,149.167 324,148.5C 322.883,149.949 322.216,151.616 322,153.5C 321.506,151.866 321.34,150.199 321.5,148.5C 322.158,147.602 322.824,146.602 323.5,145.5C 326.255,148.013 328.255,151.013 329.5,154.5 Z"/></g>
<g><path style="opacity:1" fill="#ae8150" d="M 331.5,173.5 C 331.833,170.833 332.167,168.167 332.5,165.5C 333.577,154.227 329.244,145.727 319.5,140C 304.037,134.645 292.704,139.145 285.5,153.5C 285.631,152.761 285.464,152.094 285,151.5C 284.434,153.723 283.6,155.723 282.5,157.5C 284.9,145.932 291.9,138.765 303.5,136C 321.865,134.873 332.199,143.373 334.5,161.5C 334.384,165.22 333.884,168.887 333,172.5C 332.617,173.056 332.117,173.389 331.5,173.5 Z"/></g>
<g><path style="opacity:1" fill="#706756" d="M 302.5,140.5 C 302.785,142.288 302.452,143.955 301.5,145.5C 300.571,144.311 300.238,142.978 300.5,141.5C 301.167,141.167 301.833,140.833 302.5,140.5 Z"/></g>
<g><path style="opacity:1" fill="#716c63" d="M 313.5,140.5 C 312.5,140.5 311.5,140.5 310.5,140.5C 310.768,142.099 310.434,143.432 309.5,144.5C 309.5,142.833 309.5,141.167 309.5,139.5C 311.099,139.232 312.432,139.566 313.5,140.5 Z"/></g>
<g><path style="opacity:1" fill="#57b5a1" d="M 247.5,164.5 C 249.256,165.552 249.923,167.219 249.5,169.5C 247.769,175.288 245.769,180.954 243.5,186.5C 242.527,187.791 241.527,187.791 240.5,186.5C 239.548,188.045 239.215,189.712 239.5,191.5C 235.689,191.596 235.689,192.262 239.5,193.5C 221.024,194.714 202.358,194.714 183.5,193.5C 187.775,192.424 192.108,191.757 196.5,191.5C 206.135,191.925 214.801,189.259 222.5,183.5C 224.851,180.761 227.184,178.095 229.5,175.5C 230.458,175.047 231.292,174.381 232,173.5C 232.71,174.973 233.876,175.64 235.5,175.5C 236.044,173.42 236.878,171.42 238,169.5C 238.484,163.129 238.484,156.795 238,150.5C 240.727,153.587 241.227,157.087 239.5,161C 239.646,162.727 240.313,162.894 241.5,161.5C 242.167,164.167 242.833,166.833 243.5,169.5C 245.541,168.293 246.874,166.626 247.5,164.5 Z"/></g>
<g><path style="opacity:1" fill="#201b1c" d="M 410.5,176.5 C 412.604,176.201 414.604,176.534 416.5,177.5C 413.97,178.132 411.637,179.132 409.5,180.5C 409.167,180.167 408.833,179.833 408.5,179.5C 409.193,178.482 409.859,177.482 410.5,176.5 Z"/></g>
<g><path style="opacity:1" fill="#080a0a" d="M 271.5,193.5 C 272.15,195.435 272.483,197.435 272.5,199.5C 293.673,199.169 314.673,199.503 335.5,200.5C 322.35,201.833 308.85,202.499 295,202.5C 281.5,202.167 268,201.833 254.5,201.5C 253.339,199.115 252.339,196.781 251.5,194.5C 249.802,191.876 247.969,191.876 246,194.5C 244.762,197.926 245.929,199.592 249.5,199.5C 250.404,200.209 250.737,201.209 250.5,202.5C 225.81,203.157 201.477,202.49 177.5,200.5C 197.76,199.678 218.094,199.178 238.5,199C 240.586,194.996 242.252,190.829 243.5,186.5C 245.769,180.954 247.769,175.288 249.5,169.5C 250.167,169.5 250.5,169.167 250.5,168.5C 254.259,164.542 258.092,164.542 262,168.5C 265.036,176.982 268.203,185.316 271.5,193.5 Z"/></g>
<g><path style="opacity:1" fill="#0e1a18" d="M 165.5,172.5 C 166.496,172.414 167.329,172.748 168,173.5C 169.333,176.167 170.667,178.833 172,181.5C 175.745,184.75 179.245,188.083 182.5,191.5C 178.923,191.795 175.757,190.795 173,188.5C 171.71,186.208 170.043,184.208 168,182.5C 166.273,179.382 165.439,176.049 165.5,172.5 Z"/></g>
<g><path style="opacity:0.207" fill="#9e9e9e" d="M 154.5,135.5 C 154.5,157.167 154.5,178.833 154.5,200.5C 153.833,200.5 153.167,200.5 152.5,200.5C 153.156,178.735 153.823,157.069 154.5,135.5 Z"/></g>
<g><path style="opacity:0.993" fill="#3d3c3c" d="M 437.5,178.5 C 437.632,181.007 438.632,181.674 440.5,180.5C 437.777,185.556 433.777,189.223 428.5,191.5C 429.598,190.603 429.598,189.77 428.5,189C 431.097,188.221 431.097,187.721 428.5,187.5C 431.719,184.736 434.719,181.736 437.5,178.5 Z"/></g>
<g><path style="opacity:1" fill="#cd8f4c" d="M 285.5,153.5 C 283.137,165.577 286.804,175.41 296.5,183C 314.445,189.036 326.445,183.203 332.5,165.5C 332.167,168.167 331.833,170.833 331.5,173.5C 327.957,181.864 321.624,186.697 312.5,188C 291.749,188.748 281.749,178.581 282.5,157.5C 283.6,155.723 284.434,153.723 285,151.5C 285.464,152.094 285.631,152.761 285.5,153.5 Z"/></g>
<g><path style="opacity:1" fill="#0e0f0e" d="M 193.5,129.5 C 225.399,129.389 237.399,144.723 229.5,175.5C 227.184,178.095 224.851,180.761 222.5,183.5C 214.801,189.259 206.135,191.925 196.5,191.5C 194.039,190.469 191.373,189.802 188.5,189.5C 182.902,185.737 178.068,181.07 174,175.5C 166.054,153.75 172.554,138.417 193.5,129.5 Z"/></g>
<g><path style="opacity:1" fill="#a3794a" d="M 225.5,163.5 C 225.232,165.099 225.566,166.432 226.5,167.5C 220.612,182.451 209.612,188.617 193.5,186C 185.653,182.652 179.987,177.152 176.5,169.5C 177.396,170.506 178.062,170.506 178.5,169.5C 187.355,184.966 199.688,188.466 215.5,180C 220.838,175.543 224.171,170.043 225.5,163.5 Z"/></g>
<g><path style="opacity:1" fill="#231a14" d="M 225.5,163.5 C 224.171,170.043 220.838,175.543 215.5,180C 199.688,188.466 187.355,184.966 178.5,169.5C 174.757,153.145 180.757,142.312 196.5,137C 199.833,136.333 203.167,136.333 206.5,137C 219.697,141.015 226.03,149.848 225.5,163.5 Z"/></g>
<g><path style="opacity:1" fill="#c9c2b0" d="M 222.5,167.5 C 221.034,166.653 220.2,165.32 220,163.5C 219.398,166.221 219.565,168.887 220.5,171.5C 218.108,174.895 215.108,177.561 211.5,179.5C 210.719,178.271 210.219,176.938 210,175.5C 209.505,177.473 209.338,179.473 209.5,181.5C 207.508,181.672 205.842,181.005 204.5,179.5C 203.614,180.325 203.281,181.325 203.5,182.5C 200.833,182.5 198.167,182.5 195.5,182.5C 195.278,176.435 194.278,175.768 192.5,180.5C 189.06,179.079 187.56,176.413 188,172.5C 187.77,176.483 186.437,177.149 184,174.5C 182.847,171.289 182.18,167.956 182,164.5C 181.641,167.544 180.974,167.878 180,165.5C 179.233,161.406 179.566,157.406 181,153.5C 181.333,155.5 181.667,157.5 182,159.5C 182.079,155.642 182.746,151.976 184,148.5C 184.176,151.882 184.676,155.215 185.5,158.5C 186.328,153.868 186.828,149.202 187,144.5C 188.973,143.36 190.807,142.027 192.5,140.5C 193.987,144.141 195.321,143.808 196.5,139.5C 198.071,138.691 199.738,138.357 201.5,138.5C 201.664,144.167 201.997,144.5 202.5,139.5C 203.833,139.5 205.167,139.5 206.5,139.5C 206.351,140.552 206.517,141.552 207,142.5C 208.312,140.342 209.978,140.009 212,141.5C 212.333,143.167 212.667,144.833 213,146.5C 214.221,142.873 215.888,142.873 218,146.5C 218.13,150.951 218.796,155.284 220,159.5C 220.968,149.236 222.135,149.569 223.5,160.5C 223.363,162.883 223.029,165.217 222.5,167.5 Z"/></g>
<g><path style="opacity:1" fill="#706f60" d="M 222.5,167.5 C 222.011,168.995 221.345,170.329 220.5,171.5C 219.565,168.887 219.398,166.221 220,163.5C 220.2,165.32 221.034,166.653 222.5,167.5 Z"/></g>
<g><path style="opacity:1" fill="#686653" d="M 214.5,161.5 C 215.794,163.048 216.461,165.048 216.5,167.5C 216.167,169.5 215.833,171.5 215.5,173.5C 214.833,170.358 214.166,167.358 213.5,164.5C 213.557,163.391 213.89,162.391 214.5,161.5 Z"/></g>
<g><path style="opacity:1" fill="#241b12" d="M 214.5,161.5 C 213.89,162.391 213.557,163.391 213.5,164.5C 211.836,172.335 207.169,176.835 199.5,178C 190.228,172.88 186.728,165.047 189,154.5C 191.96,144.607 198.46,141.607 208.5,145.5C 212.931,149.869 214.931,155.202 214.5,161.5 Z"/></g>
<g><path style="opacity:1" fill="#caab5c" d="M 195.5,146.5 C 199.514,146.334 203.514,146.501 207.5,147C 214.262,156.181 213.929,165.181 206.5,174C 204.726,174.97 202.893,175.804 201,176.5C 191.701,172.07 188.368,164.737 191,154.5C 191.738,151.352 193.238,148.685 195.5,146.5 Z"/></g>
<g><path style="opacity:1" fill="#2a1f14" d="M 196.5,148.5 C 202.322,148.136 206.155,150.803 208,156.5C 208.938,161.527 208.438,166.36 206.5,171C 200.662,171.863 196.829,169.363 195,163.5C 192.56,158.103 193.06,153.103 196.5,148.5 Z"/></g>
<g><path style="opacity:1" fill="#d6ccb9" d="M 197.5,149.5 C 203.917,151.288 207.251,155.621 207.5,162.5C 207.331,164.839 206.664,167.006 205.5,169C 200.704,168.9 197.538,166.4 196,161.5C 194.994,157.198 195.494,153.198 197.5,149.5 Z"/></g>
<g><path style="opacity:1" fill="#c48948" d="M 226.5,167.5 C 225.566,166.432 225.232,165.099 225.5,163.5C 226.03,149.848 219.697,141.015 206.5,137C 203.167,136.333 199.833,136.333 196.5,137C 180.757,142.312 174.757,153.145 178.5,169.5C 178.062,170.506 177.396,170.506 176.5,169.5C 172.323,155.862 175.99,145.029 187.5,137C 199.665,131.221 210.832,132.721 221,141.5C 227.387,149.136 229.22,157.803 226.5,167.5 Z"/></g>
<g><path style="opacity:0.655" fill="#656565" d="M 383.5,184.5 C 382.089,186.914 380.089,188.581 377.5,189.5C 378.911,187.086 380.911,185.419 383.5,184.5 Z"/></g>
<g><path style="opacity:1" fill="#0c1714" d="M 343.5,178.5 C 342.153,181.193 340.82,183.86 339.5,186.5C 337.116,188.885 334.45,190.885 331.5,192.5C 329.712,192.785 328.045,192.452 326.5,191.5C 333.548,187.114 338.881,181.114 342.5,173.5C 343.452,175.045 343.785,176.712 343.5,178.5 Z"/></g>
<g><path style="opacity:0.999" fill="#131212" d="M 398.5,156.5 C 396.841,161.155 395.174,165.822 393.5,170.5C 394.267,174.038 395.601,177.372 397.5,180.5C 396.635,181.583 395.635,181.749 394.5,181C 392.641,179.442 391.141,177.609 390,175.5C 388.578,178.03 388.245,180.697 389,183.5C 392.283,192.122 398.449,195.622 407.5,194C 404.793,192.872 402.293,191.372 400,189.5C 399.409,188.517 399.743,187.85 401,187.5C 410.242,192.726 419.409,192.726 428.5,187.5C 431.097,187.721 431.097,188.221 428.5,189C 429.598,189.77 429.598,190.603 428.5,191.5C 426.574,193.293 424.241,194.293 421.5,194.5C 418.15,194.335 414.817,194.502 411.5,195C 410.944,195.383 410.611,195.883 410.5,196.5C 408.572,198.113 406.238,199.113 403.5,199.5C 401.664,198.972 399.997,198.306 398.5,197.5C 396.132,196.217 393.965,194.55 392,192.5C 391.667,194.047 392.167,195.38 393.5,196.5C 391.434,199.274 389.267,201.941 387,204.5C 386.517,205.448 386.351,206.448 386.5,207.5C 378.884,214.812 369.884,219.812 359.5,222.5C 359.918,221.778 360.584,221.278 361.5,221C 361.165,219.497 361.165,218.164 361.5,217C 362.167,216.667 362.833,216.333 363.5,216C 361.82,215.966 360.32,215.799 359,215.5C 356.865,217.278 354.365,217.945 351.5,217.5C 351.18,214.102 351.513,210.768 352.5,207.5C 355.044,206.265 355.044,205.099 352.5,204C 353.667,203.5 354.5,202.667 355,201.5C 356.043,205.226 356.543,204.893 356.5,200.5C 363.937,197.615 370.937,193.949 377.5,189.5C 380.089,188.581 382.089,186.914 383.5,184.5C 384.711,181.066 386.045,177.732 387.5,174.5C 390.092,172.964 391.092,170.631 390.5,167.5C 392.169,162.83 393.836,158.163 395.5,153.5C 395.5,152.5 395.5,151.5 395.5,150.5C 396.5,150.5 397.5,150.5 398.5,150.5C 398.5,152.5 398.5,154.5 398.5,156.5 Z"/></g>
<g><path style="opacity:0.251" fill="#989898" d="M 421.5,194.5 C 417.979,195.307 414.312,195.974 410.5,196.5C 410.611,195.883 410.944,195.383 411.5,195C 414.817,194.502 418.15,194.335 421.5,194.5 Z"/></g>
<g><path style="opacity:1" fill="#59b19e" d="M 297.5,191.5 C 305.576,192.995 313.576,192.662 321.5,190.5C 323.82,191.474 326.153,192.474 328.5,193.5C 329.726,193.48 330.726,193.147 331.5,192.5C 334.45,190.885 337.116,188.885 339.5,186.5C 339.343,187.873 339.51,189.207 340,190.5C 341.249,188.008 342.416,188.175 343.5,191C 340.046,191.293 339.712,192.626 342.5,195C 339.912,198.391 340.579,201.224 344.5,203.5C 344.833,215.5 345.167,227.5 345.5,239.5C 345.499,251.852 344.832,263.852 343.5,275.5C 343.667,252.831 343.5,230.164 343,207.5C 341.941,203.607 339.441,201.274 335.5,200.5C 314.673,199.503 293.673,199.169 272.5,199.5C 272.483,197.435 272.15,195.435 271.5,193.5C 271.238,192.022 271.571,190.689 272.5,189.5C 273.842,191.005 275.508,191.672 277.5,191.5C 277.67,190.178 277.337,189.011 276.5,188C 274.603,186.89 272.77,186.724 271,187.5C 267.769,181.737 267.102,175.737 269,169.5C 269.442,167.321 270.442,166.655 272,167.5C 272.539,164.471 273.206,161.471 274,158.5C 274.414,158.957 274.914,159.291 275.5,159.5C 276.173,164.592 277.173,169.592 278.5,174.5C 278.291,175.994 277.624,177.161 276.5,178C 277.227,179.399 277.727,180.899 278,182.5C 280.035,184.912 281.035,184.245 281,180.5C 282.57,184.443 285.07,187.61 288.5,190C 291.351,191.289 294.351,191.789 297.5,191.5 Z"/></g>
<g><path style="opacity:1" fill="#d2c8c8" d="M 251.5,194.5 C 251.608,196.514 250.942,198.18 249.5,199.5C 245.929,199.592 244.762,197.926 246,194.5C 247.969,191.876 249.802,191.876 251.5,194.5 Z"/></g>
<g><path style="opacity:1" fill="#d9cfd0" d="M 259.5,193.5 C 263.35,193.701 264.35,195.534 262.5,199C 261.207,199.49 259.873,199.657 258.5,199.5C 258.325,197.379 258.659,195.379 259.5,193.5 Z"/></g>
<g><path style="opacity:0.995" fill="#333333" d="M 398.5,197.5 C 394.158,200.516 390.158,203.849 386.5,207.5C 386.351,206.448 386.517,205.448 387,204.5C 389.267,201.941 391.434,199.274 393.5,196.5C 392.167,195.38 391.667,194.047 392,192.5C 393.965,194.55 396.132,196.217 398.5,197.5 Z"/></g>
<g><path style="opacity:0.999" fill="#282828" d="M 152.5,200.5 C 153.167,200.5 153.833,200.5 154.5,200.5C 155.053,201.823 154.553,203.156 153,204.5C 152.667,203.833 152.333,203.167 152,202.5C 150.307,204.027 148.473,205.36 146.5,206.5C 145.232,205.572 143.899,205.405 142.5,206C 143.167,206.333 143.833,206.667 144.5,207C 142.416,207.778 140.583,208.945 139,210.5C 138.617,209.944 138.117,209.611 137.5,209.5C 137.5,209.167 137.5,208.833 137.5,208.5C 141.74,204.545 146.74,201.878 152.5,200.5 Z"/></g>
<g><path style="opacity:1" fill="#0c0b0b" d="M 154.5,135.5 C 155.887,137.877 156.721,140.543 157,143.5C 157.667,139.5 158.333,139.5 159,143.5C 159.333,190.833 159.667,238.167 160,285.5C 160.232,286.737 160.732,287.737 161.5,288.5C 163.228,290.226 165.228,291.559 167.5,292.5C 167.918,293.222 168.584,293.722 169.5,294C 179.494,294.5 189.494,294.666 199.5,294.5C 199.369,295.239 199.536,295.906 200,296.5C 200.654,295.304 201.154,295.304 201.5,296.5C 199.833,296.833 198.167,297.167 196.5,297.5C 192.177,297.042 187.843,296.709 183.5,296.5C 179.531,296.294 175.865,296.961 172.5,298.5C 160.409,298.745 154.075,292.745 153.5,280.5C 154.324,273.126 154.657,265.793 154.5,258.5C 154.5,246.167 154.5,233.833 154.5,221.5C 153.209,221.263 152.209,221.596 151.5,222.5C 150.486,223.674 149.153,224.34 147.5,224.5C 145.011,223.255 143.678,224.255 143.5,227.5C 142.85,227.196 142.183,226.863 141.5,226.5C 138.481,229.915 135.481,233.249 132.5,236.5C 131.52,239.086 131.187,241.753 131.5,244.5C 130.485,245.46 130.485,246.627 131.5,248C 130.944,249.011 130.278,249.844 129.5,250.5C 129.171,258.176 125.171,261.342 117.5,260C 114.679,257.859 113.346,255.025 113.5,251.5C 108.738,252.092 107.404,254.592 109.5,259C 111.659,259.912 113.825,260.745 116,261.5C 116.667,262.5 116.667,263.5 116,264.5C 112.191,265.511 108.691,265.511 105.5,264.5C 104.308,263.434 104.641,262.601 106.5,262C 105.009,259.379 104.342,256.545 104.5,253.5C 108.377,253.517 109.043,252.351 106.5,250C 107.756,249.583 108.423,248.75 108.5,247.5C 110.882,246.649 112.882,245.316 114.5,243.5C 115.768,241.095 116.435,238.428 116.5,235.5C 116.5,235.167 116.5,234.833 116.5,234.5C 118.104,233.713 118.771,232.38 118.5,230.5C 121.04,224.634 124.707,219.634 129.5,215.5C 132.431,213.909 135.098,211.909 137.5,209.5C 138.117,209.611 138.617,209.944 139,210.5C 140.583,208.945 142.416,207.778 144.5,207C 143.833,206.667 143.167,206.333 142.5,206C 143.899,205.405 145.232,205.572 146.5,206.5C 148.473,205.36 150.307,204.027 152,202.5C 152.333,203.167 152.667,203.833 153,204.5C 154.553,203.156 155.053,201.823 154.5,200.5C 154.5,178.833 154.5,157.167 154.5,135.5 Z"/></g>
<g><path style="opacity:1" fill="#57b4a0" d="M 168.5,139.5 C 168.5,139.833 168.5,140.167 168.5,140.5C 167.691,141.469 166.691,142.302 165.5,143C 166.022,143.561 166.355,144.228 166.5,145C 164.347,149.676 164.014,154.509 165.5,159.5C 166.775,155.922 167.775,152.255 168.5,148.5C 169.495,154.128 169.829,159.794 169.5,165.5C 168.178,165.67 167.011,165.337 166,164.5C 165.5,165 165,165.5 164.5,166C 165.423,168.041 165.756,170.208 165.5,172.5C 165.439,176.049 166.273,179.382 168,182.5C 170.043,184.208 171.71,186.208 173,188.5C 175.757,190.795 178.923,191.795 182.5,191.5C 183.158,190.602 183.824,189.602 184.5,188.5C 185.736,189.246 187.07,189.579 188.5,189.5C 191.373,189.802 194.039,190.469 196.5,191.5C 192.108,191.757 187.775,192.424 183.5,193.5C 202.358,194.714 221.024,194.714 239.5,193.5C 235.689,192.262 235.689,191.596 239.5,191.5C 239.215,189.712 239.548,188.045 240.5,186.5C 241.527,187.791 242.527,187.791 243.5,186.5C 242.252,190.829 240.586,194.996 238.5,199C 218.094,199.178 197.76,199.678 177.5,200.5C 174.909,201.254 173.076,202.921 172,205.5C 171.241,216.825 170.741,228.158 170.5,239.5C 169.697,249.002 169.03,258.669 168.5,268.5C 168.582,271.98 169.248,275.313 170.5,278.5C 169.778,278.082 169.278,277.416 169,276.5C 168.182,279.227 168.348,281.894 169.5,284.5C 170.086,284.291 170.586,283.957 171,283.5C 172.833,284.667 174.333,286.167 175.5,288C 171.277,288.305 167.277,288.138 163.5,287.5C 162.833,266.004 162.167,244.671 161.5,223.5C 162.174,195.84 162.674,168.173 163,140.5C 163.667,141.833 164.333,141.833 165,140.5C 165.249,137.823 166.249,135.49 168,133.5C 168.692,134.025 169.192,134.692 169.5,135.5C 168.754,136.736 168.421,138.07 168.5,139.5 Z"/></g>
<g><path style="opacity:0.624" fill="#6e6e6e" d="M 137.5,208.5 C 137.5,208.833 137.5,209.167 137.5,209.5C 135.098,211.909 132.431,213.909 129.5,215.5C 131.569,212.427 134.236,210.094 137.5,208.5 Z"/></g>
<g><path style="opacity:0.969" fill="#606060" d="M 147.5,224.5 C 146.738,226.262 145.404,227.262 143.5,227.5C 143.678,224.255 145.011,223.255 147.5,224.5 Z"/></g>
<g><path style="opacity:0.035" fill="#b5b5b5" d="M 139.5,231.5 C 139.573,233.027 138.906,234.027 137.5,234.5C 137.427,232.973 138.094,231.973 139.5,231.5 Z"/></g>
<g><path style="opacity:0.176" fill="#adadad" d="M 118.5,230.5 C 118.771,232.38 118.104,233.713 116.5,234.5C 116.66,232.847 117.326,231.514 118.5,230.5 Z"/></g>
<g><path style="opacity:0.998" fill="#363636" d="M 143.5,227.5 C 142.5,229.167 141.167,230.5 139.5,231.5C 138.094,231.973 137.427,232.973 137.5,234.5C 135.485,237.869 133.485,241.202 131.5,244.5C 131.187,241.753 131.52,239.086 132.5,236.5C 135.481,233.249 138.481,229.915 141.5,226.5C 142.183,226.863 142.85,227.196 143.5,227.5 Z"/></g>
<g><path style="opacity:0.69" fill="#727272" d="M 116.5,235.5 C 116.435,238.428 115.768,241.095 114.5,243.5C 114.294,240.505 114.96,237.838 116.5,235.5 Z"/></g>
<g><path style="opacity:0.037" fill="#d4d4d4" d="M 151.5,222.5 C 152.209,221.596 153.209,221.263 154.5,221.5C 154.5,233.833 154.5,246.167 154.5,258.5C 154.16,246.299 153.16,234.299 151.5,222.5 Z"/></g>
<g><path style="opacity:0.363" fill="#8c8c8c" d="M 359.5,222.5 C 358.791,223.404 357.791,223.737 356.5,223.5C 356.831,244.34 356.497,265.007 355.5,285.5C 355.5,264.5 355.5,243.5 355.5,222.5C 356.833,222.5 358.167,222.5 359.5,222.5 Z"/></g>
<g><path style="opacity:1" fill="#0b0e0a" d="M 251.5,194.5 C 252.339,196.781 253.339,199.115 254.5,201.5C 268,201.833 281.5,202.167 295,202.5C 308.85,202.499 322.35,201.833 335.5,200.5C 339.441,201.274 341.941,203.607 343,207.5C 343.5,230.164 343.667,252.831 343.5,275.5C 342.699,277.042 342.366,278.708 342.5,280.5C 341.317,281.504 339.984,282.338 338.5,283C 294.835,283.5 251.168,283.667 207.5,283.5C 196.992,282.833 186.326,282.167 175.5,281.5C 173.005,279.851 171.505,277.517 171,274.5C 170.5,262.838 170.333,251.171 170.5,239.5C 170.741,228.158 171.241,216.825 172,205.5C 173.076,202.921 174.909,201.254 177.5,200.5C 201.477,202.49 225.81,203.157 250.5,202.5C 250.737,201.209 250.404,200.209 249.5,199.5C 250.942,198.18 251.608,196.514 251.5,194.5 Z"/></g>
<g><path style="opacity:1" fill="#d2c3a2" d="M 323.5,206.5 C 327.902,206.228 332.235,206.561 336.5,207.5C 337.5,230.824 337.833,254.157 337.5,277.5C 286.167,277.5 234.833,277.5 183.5,277.5C 179.818,278.275 177.318,276.941 176,273.5C 175.916,259.506 176.083,245.506 176.5,231.5C 176.502,223.138 177.169,215.138 178.5,207.5C 178.5,226.167 178.5,244.833 178.5,263.5C 180.331,264.052 181.997,264.052 183.5,263.5C 184.5,263.833 185.167,264.5 185.5,265.5C 183.787,268.926 182.12,272.26 180.5,275.5C 231.04,276.447 281.54,276.447 332,275.5C 333.167,275.167 334.333,274.833 335.5,274.5C 325.296,273.44 315.129,273.773 305,275.5C 290.067,273.692 275.234,272.359 260.5,271.5C 281.833,271.5 303.167,271.5 324.5,271.5C 324.739,269.533 324.406,267.699 323.5,266C 314.173,265.5 304.839,265.334 295.5,265.5C 295.848,258.094 295.348,250.761 294,243.5C 292.389,240.062 290.223,237.062 287.5,234.5C 291.182,234.756 294.015,236.423 296,239.5C 296.617,238.551 296.451,237.718 295.5,237C 296.416,236.626 297.25,236.126 298,235.5C 299.551,232.132 300.717,228.632 301.5,225C 301.836,223.97 302.503,223.47 303.5,223.5C 302.623,228.554 301.623,233.554 300.5,238.5C 302.39,238.703 303.89,238.037 305,236.5C 308.232,229.839 309.232,222.839 308,215.5C 306.925,212.804 305.092,210.804 302.5,209.5C 302.167,210.167 301.833,210.833 301.5,211.5C 302.932,214.327 303.599,217.327 303.5,220.5C 302.5,220.5 301.5,220.5 300.5,220.5C 300.382,217.312 299.549,214.312 298,211.5C 297.667,211.833 297.333,212.167 297,212.5C 295.49,208.099 292.324,206.266 287.5,207C 294.167,206.333 300.833,206.333 307.5,207C 308.325,208.688 309.325,208.855 310.5,207.5C 310.582,210.333 310.748,213.333 311,216.5C 311.333,216.167 311.667,215.833 312,215.5C 312.333,217.167 312.667,218.833 313,220.5C 314.857,216.62 316.19,216.954 317,221.5C 318.569,220.286 319.402,218.619 319.5,216.5C 318.471,213.486 317.471,210.486 316.5,207.5C 318.95,207.702 321.283,207.369 323.5,206.5 Z"/></g>
<g><path style="opacity:1" fill="#0f0907" d="M 268.5,228.5 C 266.078,227.915 264.411,226.415 263.5,224C 261.471,223.319 259.471,222.986 257.5,223C 262.453,225.344 265.619,229.177 267,234.5C 267.825,244.675 267.658,254.675 266.5,264.5C 266.666,256.16 266.5,247.827 266,239.5C 265.814,236.964 265.314,234.631 264.5,232.5C 263.876,230.246 262.543,228.579 260.5,227.5C 252.725,223.371 247.058,225.371 243.5,233.5C 242.506,243.987 242.172,254.654 242.5,265.5C 250.167,265.5 257.833,265.5 265.5,265.5C 258.352,266.492 251.019,266.825 243.5,266.5C 243.5,267.833 243.5,269.167 243.5,270.5C 226.167,270.5 208.833,270.5 191.5,270.5C 190.549,269.081 190.216,267.415 190.5,265.5C 197.5,265.5 204.5,265.5 211.5,265.5C 211.5,260.833 211.5,256.167 211.5,251.5C 214.303,236.174 223.303,229.674 238.5,232C 244.185,220.495 252.851,217.495 264.5,223C 266.464,224.451 267.797,226.284 268.5,228.5 Z"/></g>
<g><path style="opacity:1" fill="#f79321" d="M 236.5,239.5 C 236.5,247.833 236.5,256.167 236.5,264.5C 229.833,264.5 223.167,264.5 216.5,264.5C 216.5,260.167 216.5,255.833 216.5,251.5C 218.457,247.329 220.791,243.329 223.5,239.5C 227.833,236.833 232.167,236.833 236.5,239.5 Z"/></g>
<g><path style="opacity:1" fill="#b9782f" d="M 223.5,239.5 C 220.791,243.329 218.457,247.329 216.5,251.5C 216.426,245.946 218.759,241.946 223.5,239.5 Z"/></g>
<g><path style="opacity:1" fill="#f69321" d="M 260.5,227.5 C 262.543,228.579 263.876,230.246 264.5,232.5C 264.5,243.167 264.5,253.833 264.5,264.5C 257.833,264.5 251.167,264.5 244.5,264.5C 243.774,254.183 243.44,243.85 243.5,233.5C 245.963,231.539 248.297,229.372 250.5,227C 253.868,226.457 257.201,226.624 260.5,227.5 Z"/></g>
<g><path style="opacity:1" fill="#a06a2e" d="M 236.5,239.5 C 232.167,236.833 227.833,236.833 223.5,239.5C 224.874,237.041 227.04,236.041 230,236.5C 232.96,236.041 235.126,237.041 236.5,239.5 Z"/></g>
<g><path style="opacity:1" fill="#171410" d="M 312.5,223.5 C 313.833,223.5 315.167,223.5 316.5,223.5C 316.665,227.182 316.499,230.848 316,234.5C 314.959,236.585 313.459,238.252 311.5,239.5C 310.5,239.167 309.833,238.5 309.5,237.5C 311.96,233.156 312.96,228.489 312.5,223.5 Z"/></g>
<g><path style="opacity:1" fill="#120f0a" d="M 303.5,223.5 C 303.5,222.5 303.5,221.5 303.5,220.5C 303.599,217.327 302.932,214.327 301.5,211.5C 301.833,210.833 302.167,210.167 302.5,209.5C 305.092,210.804 306.925,212.804 308,215.5C 309.232,222.839 308.232,229.839 305,236.5C 303.89,238.037 302.39,238.703 300.5,238.5C 301.623,233.554 302.623,228.554 303.5,223.5 Z"/></g>
<g><path style="opacity:1" fill="#d5c5a3" d="M 258.5,205.5 C 280.34,205.169 302.006,205.503 323.5,206.5C 321.283,207.369 318.95,207.702 316.5,207.5C 317.471,210.486 318.471,213.486 319.5,216.5C 319.402,218.619 318.569,220.286 317,221.5C 316.19,216.954 314.857,216.62 313,220.5C 312.667,218.833 312.333,217.167 312,215.5C 311.667,215.833 311.333,216.167 311,216.5C 310.748,213.333 310.582,210.333 310.5,207.5C 309.325,208.855 308.325,208.688 307.5,207C 300.833,206.333 294.167,206.333 287.5,207C 292.324,206.266 295.49,208.099 297,212.5C 297.333,212.167 297.667,211.833 298,211.5C 299.549,214.312 300.382,217.312 300.5,220.5C 301.5,220.5 302.5,220.5 303.5,220.5C 303.5,221.5 303.5,222.5 303.5,223.5C 302.503,223.47 301.836,223.97 301.5,225C 300.717,228.632 299.551,232.132 298,235.5C 297.25,236.126 296.416,236.626 295.5,237C 296.451,237.718 296.617,238.551 296,239.5C 294.015,236.423 291.182,234.756 287.5,234.5C 282.881,233.686 278.214,233.353 273.5,233.5C 272.038,226.842 268.038,222.008 261.5,219C 256.718,218.881 252.051,218.215 247.5,217C 249.996,215.92 252.33,214.586 254.5,213C 252.122,212.489 249.788,211.822 247.5,211C 250.232,210.587 252.899,209.92 255.5,209C 257.056,208.28 258.056,207.113 258.5,205.5 Z"/></g>
<g><path style="opacity:1" fill="#d4c4a3" d="M 258.5,205.5 C 258.056,207.113 257.056,208.28 255.5,209C 252.899,209.92 250.232,210.587 247.5,211C 249.788,211.822 252.122,212.489 254.5,213C 252.33,214.586 249.996,215.92 247.5,217C 252.051,218.215 256.718,218.881 261.5,219C 268.038,222.008 272.038,226.842 273.5,233.5C 272.791,234.404 271.791,234.737 270.5,234.5C 270.405,232.214 269.738,230.214 268.5,228.5C 267.797,226.284 266.464,224.451 264.5,223C 252.851,217.495 244.185,220.495 238.5,232C 223.303,229.674 214.303,236.174 211.5,251.5C 210.515,255.634 210.182,259.968 210.5,264.5C 203.646,264.176 196.979,264.509 190.5,265.5C 190.216,267.415 190.549,269.081 191.5,270.5C 214.327,271.498 237.327,271.831 260.5,271.5C 275.234,272.359 290.067,273.692 305,275.5C 315.129,273.773 325.296,273.44 335.5,274.5C 334.333,274.833 333.167,275.167 332,275.5C 281.54,276.447 231.04,276.447 180.5,275.5C 182.12,272.26 183.787,268.926 185.5,265.5C 185.167,264.5 184.5,263.833 183.5,263.5C 181.997,264.052 180.331,264.052 178.5,263.5C 178.5,244.833 178.5,226.167 178.5,207.5C 205.083,205.591 231.75,204.925 258.5,205.5 Z"/></g>
<g><path style="opacity:1" fill="#1a1410" d="M 199.5,221.5 C 201.064,227.187 203.064,232.853 205.5,238.5C 200.197,237.208 197.864,233.708 198.5,228C 198.653,225.784 198.986,223.617 199.5,221.5 Z"/></g>
<g><path style="opacity:1" fill="#966125" d="M 260.5,227.5 C 257.201,226.624 253.868,226.457 250.5,227C 248.297,229.372 245.963,231.539 243.5,233.5C 247.058,225.371 252.725,223.371 260.5,227.5 Z"/></g>
<g><path style="opacity:1" fill="#191410" d="M 209.5,210.5 C 210.675,210.281 211.675,210.614 212.5,211.5C 211.116,214.334 210.449,217.334 210.5,220.5C 211.487,225.151 212.487,229.817 213.5,234.5C 210.225,233.386 208.058,231.053 207,227.5C 205.804,221.461 206.638,215.795 209.5,210.5 Z"/></g>
<g><path style="opacity:1" fill="#b8ad98" d="M 183.5,277.5 C 234.833,277.5 286.167,277.5 337.5,277.5C 337.833,254.157 337.5,230.824 336.5,207.5C 332.235,206.561 327.902,206.228 323.5,206.5C 302.006,205.503 280.34,205.169 258.5,205.5C 231.75,204.925 205.083,205.591 178.5,207.5C 179.058,206.21 180.058,205.377 181.5,205C 232.833,204.333 284.167,204.333 335.5,205C 336.416,205.374 337.25,205.874 338,206.5C 338.276,225.508 338.776,244.508 339.5,263.5C 339.208,268.509 338.874,273.509 338.5,278.5C 286.664,278.832 234.997,278.499 183.5,277.5 Z"/></g>
<g><path style="opacity:1" fill="#9d917e" d="M 211.5,251.5 C 211.5,256.167 211.5,260.833 211.5,265.5C 204.5,265.5 197.5,265.5 190.5,265.5C 196.979,264.509 203.646,264.176 210.5,264.5C 210.182,259.968 210.515,255.634 211.5,251.5 Z"/></g>
<g><path style="opacity:1" fill="#c07f34" d="M 236.5,239.5 C 238.246,247.933 238.912,256.6 238.5,265.5C 230.833,265.5 223.167,265.5 215.5,265.5C 215.181,260.637 215.514,255.97 216.5,251.5C 216.5,255.833 216.5,260.167 216.5,264.5C 223.167,264.5 229.833,264.5 236.5,264.5C 236.5,256.167 236.5,247.833 236.5,239.5 Z"/></g>
<g><path style="opacity:1" fill="#b47530" d="M 264.5,232.5 C 265.314,234.631 265.814,236.964 266,239.5C 266.5,247.827 266.666,256.16 266.5,264.5C 266.5,265.167 266.167,265.5 265.5,265.5C 257.833,265.5 250.167,265.5 242.5,265.5C 242.172,254.654 242.506,243.987 243.5,233.5C 243.44,243.85 243.774,254.183 244.5,264.5C 251.167,264.5 257.833,264.5 264.5,264.5C 264.5,253.833 264.5,243.167 264.5,232.5 Z"/></g>
<g><path style="opacity:1" fill="#110e0c" d="M 268.5,228.5 C 269.738,230.214 270.405,232.214 270.5,234.5C 271.791,234.737 272.791,234.404 273.5,233.5C 278.214,233.353 282.881,233.686 287.5,234.5C 290.223,237.062 292.389,240.062 294,243.5C 295.348,250.761 295.848,258.094 295.5,265.5C 304.839,265.334 314.173,265.5 323.5,266C 324.406,267.699 324.739,269.533 324.5,271.5C 303.167,271.5 281.833,271.5 260.5,271.5C 237.327,271.831 214.327,271.498 191.5,270.5C 208.833,270.5 226.167,270.5 243.5,270.5C 243.5,269.167 243.5,267.833 243.5,266.5C 251.019,266.825 258.352,266.492 265.5,265.5C 266.167,265.5 266.5,265.167 266.5,264.5C 267.658,254.675 267.825,244.675 267,234.5C 265.619,229.177 262.453,225.344 257.5,223C 259.471,222.986 261.471,223.319 263.5,224C 264.411,226.415 266.078,227.915 268.5,228.5 Z"/></g>
<g><path style="opacity:1" fill="#ca873d" d="M 287.5,243.5 C 288.927,245.148 289.76,247.148 290,249.5C 290.499,254.823 290.666,260.156 290.5,265.5C 283.833,265.5 277.167,265.5 270.5,265.5C 270.187,261.958 270.521,258.625 271.5,255.5C 271.5,258.5 271.5,261.5 271.5,264.5C 277.167,264.5 282.833,264.5 288.5,264.5C 288.674,257.465 288.341,250.465 287.5,243.5 Z"/></g>
<g><path style="opacity:1" fill="#f59222" d="M 287.5,243.5 C 288.341,250.465 288.674,257.465 288.5,264.5C 282.833,264.5 277.167,264.5 271.5,264.5C 271.5,261.5 271.5,258.5 271.5,255.5C 267.98,243.207 272.313,238.04 284.5,240C 286.426,240.422 287.426,241.589 287.5,243.5 Z"/></g>
<g><path style="opacity:1" fill="#599d8d" d="M 170.5,239.5 C 170.333,251.171 170.5,262.838 171,274.5C 171.505,277.517 173.005,279.851 175.5,281.5C 186.326,282.167 196.992,282.833 207.5,283.5C 195.829,283.667 184.162,283.5 172.5,283C 171.418,281.67 170.751,280.17 170.5,278.5C 169.248,275.313 168.582,271.98 168.5,268.5C 169.03,258.669 169.697,249.002 170.5,239.5 Z"/></g>
<g><path style="opacity:0.686" fill="#6a6a6a" d="M 144.5,278.5 C 146.472,281.084 147.472,284.084 147.5,287.5C 145.69,284.855 144.69,281.855 144.5,278.5 Z"/></g>
<g><path style="opacity:1" fill="#58af9e" d="M 161.5,223.5 C 162.167,244.671 162.833,266.004 163.5,287.5C 167.277,288.138 171.277,288.305 175.5,288C 174.333,286.167 172.833,284.667 171,283.5C 170.586,283.957 170.086,284.291 169.5,284.5C 168.348,281.894 168.182,279.227 169,276.5C 169.278,277.416 169.778,278.082 170.5,278.5C 170.751,280.17 171.418,281.67 172.5,283C 184.162,283.5 195.829,283.667 207.5,283.5C 251.168,283.667 294.835,283.5 338.5,283C 339.984,282.338 341.317,281.504 342.5,280.5C 342.649,281.552 342.483,282.552 342,283.5C 339.943,285.269 338.11,287.269 336.5,289.5C 306.86,288.739 277.194,288.405 247.5,288.5C 228.831,289.056 210.164,289.722 191.5,290.5C 240.497,291.667 289.497,291.833 338.5,291C 340.345,289.872 342.345,289.372 344.5,289.5C 343.319,291.067 341.653,291.901 339.5,292C 282.168,292.5 224.834,292.667 167.5,292.5C 165.228,291.559 163.228,290.226 161.5,288.5C 161.5,287.167 161.5,285.833 161.5,284.5C 161.5,264.167 161.5,243.833 161.5,223.5 Z"/></g>
<g><path style="opacity:1" fill="#56b6a2" d="M 344.5,289.5 C 342.345,289.372 340.345,289.872 338.5,291C 289.497,291.833 240.497,291.667 191.5,290.5C 210.164,289.722 228.831,289.056 247.5,288.5C 277.194,288.405 306.86,288.739 336.5,289.5C 338.11,287.269 339.943,285.269 342,283.5C 342.483,282.552 342.649,281.552 342.5,280.5C 342.366,278.708 342.699,277.042 343.5,275.5C 344.832,263.852 345.499,251.852 345.5,239.5C 345.167,227.5 344.833,215.5 344.5,203.5C 340.579,201.224 339.912,198.391 342.5,195C 339.712,192.626 340.046,191.293 343.5,191C 342.416,188.175 341.249,188.008 340,190.5C 339.51,189.207 339.343,187.873 339.5,186.5C 340.82,183.86 342.153,181.193 343.5,178.5C 344.117,178.389 344.617,178.056 345,177.5C 344.857,182.08 345.024,186.58 345.5,191C 345.833,191.167 346.167,191.333 346.5,191.5C 347.321,188.553 347.821,185.553 348,182.5C 348.667,214.833 348.667,247.167 348,279.5C 346.815,282.932 345.648,286.265 344.5,289.5 Z"/></g>
<g><path style="opacity:0.098" fill="#b6b6b6" d="M 353.5,289.5 C 353.573,291.027 352.906,292.027 351.5,292.5C 351.427,290.973 352.094,289.973 353.5,289.5 Z"/></g>
<g><path style="opacity:0.024" fill="#a4a4a4" d="M 90.5,295.5 C 91.8333,296.167 92.8333,297.167 93.5,298.5C 91.5,298.5 90.5,297.5 90.5,295.5 Z"/></g>
<g><path style="opacity:0.251" fill="#a6a7a5" d="M 288.5,321.5 C 288.5,314.167 288.5,306.833 288.5,299.5C 265.833,299.5 243.167,299.5 220.5,299.5C 220.5,303.5 220.5,307.5 220.5,311.5C 220.167,311.5 219.833,311.5 219.5,311.5C 219.5,307.167 219.5,302.833 219.5,298.5C 242.833,298.5 266.167,298.5 289.5,298.5C 289.825,306.352 289.492,314.018 288.5,321.5 Z"/></g>
<g><path style="opacity:0.999" fill="#0d0c0c" d="M 340.5,298.5 C 329.5,298.5 318.5,298.5 307.5,298.5C 307.5,302.833 307.5,307.167 307.5,311.5C 307.5,312.167 307.5,312.833 307.5,313.5C 306.51,319.645 306.177,325.978 306.5,332.5C 307.5,332.5 308.5,332.5 309.5,332.5C 311.193,333.475 312.693,334.808 314,336.5C 314.816,335.177 315.983,334.511 317.5,334.5C 323.378,332.935 329.378,332.268 335.5,332.5C 337.972,333.909 340.305,335.576 342.5,337.5C 344.5,340.841 345.5,344.507 345.5,348.5C 344.596,349.209 344.263,350.209 344.5,351.5C 343.167,351.5 341.833,351.5 340.5,351.5C 341.329,348.531 341.495,345.531 341,342.5C 339.924,339.921 338.091,338.254 335.5,337.5C 332.144,335.621 328.477,335.121 324.5,336C 317.544,339.145 310.877,342.811 304.5,347C 302.866,347.494 301.199,347.66 299.5,347.5C 299.5,346.833 299.5,346.167 299.5,345.5C 302.973,344.553 306.14,342.887 309,340.5C 309.884,338.359 309.384,336.693 307.5,335.5C 300.884,346.088 294.551,346.088 288.5,335.5C 289.122,333.665 290.456,332.498 292.5,332C 291.259,330.302 289.926,328.802 288.5,327.5C 288.5,325.5 288.5,323.5 288.5,321.5C 289.492,314.018 289.825,306.352 289.5,298.5C 266.167,298.5 242.833,298.5 219.5,298.5C 219.5,302.833 219.5,307.167 219.5,311.5C 219.664,314.187 219.497,316.854 219,319.5C 217.796,313.247 217.129,306.914 217,300.5C 216.172,309.81 215.672,309.81 215.5,300.5C 212.116,300.34 208.783,300.673 205.5,301.5C 204.353,301.182 203.519,300.516 203,299.5C 202.79,301.058 202.29,302.391 201.5,303.5C 201.5,302.167 201.5,300.833 201.5,299.5C 191.794,299.755 182.127,299.421 172.5,298.5C 175.865,296.961 179.531,296.294 183.5,296.5C 187.843,296.709 192.177,297.042 196.5,297.5C 198.167,297.167 199.833,296.833 201.5,296.5C 201.154,295.304 200.654,295.304 200,296.5C 199.536,295.906 199.369,295.239 199.5,294.5C 246.542,294.828 293.542,294.495 340.5,293.5C 341.666,295.167 341.666,296.834 340.5,298.5 Z"/></g>
<g><path style="opacity:0.165" fill="#d3d4d2" d="M 340.5,298.5 C 330.013,299.494 319.346,299.828 308.5,299.5C 308.817,303.702 308.483,307.702 307.5,311.5C 307.5,307.167 307.5,302.833 307.5,298.5C 318.5,298.5 329.5,298.5 340.5,298.5 Z"/></g>
<g><path style="opacity:0.525" fill="#898989" d="M 96.5,299.5 C 97.8333,299.5 99.1667,299.5 100.5,299.5C 100.5,300.5 100.5,301.5 100.5,302.5C 99.2597,301.341 97.9264,300.341 96.5,299.5 Z"/></g>
<g><path style="opacity:0.949" fill="#6a6c6b" d="M 143.5,299.5 C 141.295,301.346 138.961,303.013 136.5,304.5C 136.5,303.167 136.5,301.833 136.5,300.5C 138.903,300.552 141.236,300.219 143.5,299.5 Z"/></g>
<g><path style="opacity:1" fill="#191818" d="M 131.5,244.5 C 134.171,246.934 137.004,249.267 140,251.5C 141.6,256.252 140.434,260.418 136.5,264C 139.572,268.647 142.238,273.48 144.5,278.5C 144.69,281.855 145.69,284.855 147.5,287.5C 147.664,290.187 147.497,292.854 147,295.5C 146.34,297.324 145.173,298.657 143.5,299.5C 141.236,300.219 138.903,300.552 136.5,300.5C 136.5,301.833 136.5,303.167 136.5,304.5C 136.167,305.5 135.5,306.167 134.5,306.5C 132.77,307.026 131.436,308.026 130.5,309.5C 129.735,309.923 128.902,310.257 128,310.5C 125.567,309.521 123.067,308.855 120.5,308.5C 116.633,308.758 112.966,308.092 109.5,306.5C 106.663,307.616 103.996,307.116 101.5,305C 100.748,304.329 100.414,303.496 100.5,302.5C 100.5,301.5 100.5,300.5 100.5,299.5C 99.1667,299.5 97.8333,299.5 96.5,299.5C 95.209,299.737 94.209,299.404 93.5,298.5C 92.8333,297.167 91.8333,296.167 90.5,295.5C 88.9827,293.538 88.3161,291.205 88.5,288.5C 90.4305,277.397 95.2638,267.73 103,259.5C 102.138,254.307 103.971,250.307 108.5,247.5C 108.423,248.75 107.756,249.583 106.5,250C 109.043,252.351 108.377,253.517 104.5,253.5C 104.342,256.545 105.009,259.379 106.5,262C 104.641,262.601 104.308,263.434 105.5,264.5C 100.634,270.895 96.801,277.895 94,285.5C 93.1193,292.955 96.2859,295.789 103.5,294C 104.167,296.333 104.833,298.667 105.5,301C 108.046,300.368 110.712,299.868 113.5,299.5C 112.842,303.677 114.508,305.177 118.5,304C 119.459,302.536 120.792,301.703 122.5,301.5C 123.986,302.814 125.653,303.814 127.5,304.5C 130.609,303.226 132.942,301.06 134.5,298C 137.911,297.883 140.411,296.383 142,293.5C 143.162,287.443 142.162,281.777 139,276.5C 136.913,273.327 135.079,269.994 133.5,266.5C 131.577,265.692 129.577,265.192 127.5,265C 124.833,263.667 124.833,262.333 127.5,261C 137.157,258.896 137.824,255.396 129.5,250.5C 130.278,249.844 130.944,249.011 131.5,248C 130.485,246.627 130.485,245.46 131.5,244.5 Z"/></g>
<g><path style="opacity:1" fill="#ded3d3" d="M 129.5,250.5 C 137.824,255.396 137.157,258.896 127.5,261C 124.833,262.333 124.833,263.667 127.5,265C 129.577,265.192 131.577,265.692 133.5,266.5C 135.079,269.994 136.913,273.327 139,276.5C 142.162,281.777 143.162,287.443 142,293.5C 140.411,296.383 137.911,297.883 134.5,298C 132.942,301.06 130.609,303.226 127.5,304.5C 125.653,303.814 123.986,302.814 122.5,301.5C 120.792,301.703 119.459,302.536 118.5,304C 114.508,305.177 112.842,303.677 113.5,299.5C 110.712,299.868 108.046,300.368 105.5,301C 104.833,298.667 104.167,296.333 103.5,294C 96.2859,295.789 93.1193,292.955 94,285.5C 96.801,277.895 100.634,270.895 105.5,264.5C 108.691,265.511 112.191,265.511 116,264.5C 116.667,263.5 116.667,262.5 116,261.5C 113.825,260.745 111.659,259.912 109.5,259C 107.404,254.592 108.738,252.092 113.5,251.5C 113.346,255.025 114.679,257.859 117.5,260C 125.171,261.342 129.171,258.176 129.5,250.5 Z"/></g>
<g><path style="opacity:1" fill="#261f1f" d="M 122.5,292.5 C 123.833,292.5 125.167,292.5 126.5,292.5C 126.833,295.5 125.5,296.833 122.5,296.5C 122.5,295.167 122.5,293.833 122.5,292.5 Z"/></g>
<g><path style="opacity:1" fill="#1c1516" d="M 113.5,291.5 C 114.5,291.5 115.5,291.5 116.5,291.5C 116.5,292.5 116.5,293.5 116.5,294.5C 115.5,294.5 114.5,294.5 113.5,294.5C 113.5,293.5 113.5,292.5 113.5,291.5 Z"/></g>
<g><path style="opacity:1" fill="#15100e" d="M 104.5,287.5 C 105.5,287.5 106.5,287.5 107.5,287.5C 107.5,288.5 107.5,289.5 107.5,290.5C 106.5,290.5 105.5,290.5 104.5,290.5C 104.5,289.5 104.5,288.5 104.5,287.5 Z"/></g>
<g><path style="opacity:1" fill="#161313" d="M 219.5,311.5 C 219.833,311.5 220.167,311.5 220.5,311.5C 220.5,315.5 220.5,319.5 220.5,323.5C 220.5,326.167 220.5,328.833 220.5,331.5C 222.903,331.393 224.736,332.393 226,334.5C 226.186,337.036 226.686,339.369 227.5,341.5C 231.252,343.714 232.419,347.047 231,351.5C 230.626,352.416 230.126,353.25 229.5,354C 232.612,356.439 234.945,359.439 236.5,363C 236.257,363.902 235.923,364.735 235.5,365.5C 234.504,365.414 233.671,365.748 233,366.5C 232.167,364 231,363.833 229.5,366C 230.308,366.308 230.975,366.808 231.5,367.5C 230.23,368.288 229.23,369.288 228.5,370.5C 223.282,372.664 217.782,373.997 212,374.5C 202.531,373.795 193.031,373.129 183.5,372.5C 182.432,371.566 181.099,371.232 179.5,371.5C 175.584,372.039 172.584,370.706 170.5,367.5C 170.027,366.094 169.027,365.427 167.5,365.5C 167.167,364.833 166.833,364.167 166.5,363.5C 166.448,361.097 166.781,358.764 167.5,356.5C 166.588,354.405 165.421,352.405 164,350.5C 161.575,344.678 162.741,339.678 167.5,335.5C 170.1,334.532 172.434,333.199 174.5,331.5C 181.861,330.081 188.861,331.415 195.5,335.5C 196.605,333.389 198.271,332.055 200.5,331.5C 202.048,331.179 202.715,330.179 202.5,328.5C 201.531,320.252 201.198,311.918 201.5,303.5C 202.29,302.391 202.79,301.058 203,299.5C 203.519,300.516 204.353,301.182 205.5,301.5C 208.783,300.673 212.116,300.34 215.5,300.5C 215.672,309.81 216.172,309.81 217,300.5C 217.129,306.914 217.796,313.247 219,319.5C 219.497,316.854 219.664,314.187 219.5,311.5 Z"/></g>
<g><path style="opacity:0.863" fill="#565656" d="M 109.5,306.5 C 112.966,308.092 116.633,308.758 120.5,308.5C 116.471,310.845 112.804,310.178 109.5,306.5 Z"/></g>
<g><path style="opacity:0.035" fill="#bbbbbb" d="M 134.5,306.5 C 133.965,308.446 132.632,309.446 130.5,309.5C 131.436,308.026 132.77,307.026 134.5,306.5 Z"/></g>
<g><path style="opacity:0.067" fill="#bababa" d="M 307.5,313.5 C 306.94,320.121 307.607,326.455 309.5,332.5C 308.5,332.5 307.5,332.5 306.5,332.5C 306.177,325.978 306.51,319.645 307.5,313.5 Z"/></g>
<g><path style="opacity:0.2" fill="#d2d2d2" d="M 202.5,328.5 C 202.715,330.179 202.048,331.179 200.5,331.5C 200.932,330.29 201.599,329.29 202.5,328.5 Z"/></g>
<g><path style="opacity:0.533" fill="#727272" d="M 174.5,331.5 C 172.434,333.199 170.1,334.532 167.5,335.5C 169.121,333.058 171.454,331.725 174.5,331.5 Z"/></g>
<g><path style="opacity:0.914" fill="#5b5b5b" d="M 335.5,332.5 C 329.378,332.268 323.378,332.935 317.5,334.5C 323.272,331.52 329.272,330.853 335.5,332.5 Z"/></g>
<g><path style="opacity:0.271" fill="#a1a1a3" d="M 335.5,332.5 C 339.14,332.475 341.473,334.142 342.5,337.5C 340.305,335.576 337.972,333.909 335.5,332.5 Z"/></g>
<g><path style="opacity:0.51" fill="#a9a9a9" d="M 220.5,323.5 C 221.468,325.607 221.802,327.941 221.5,330.5C 225.688,331.19 228.022,333.69 228.5,338C 227.663,339.011 227.33,340.178 227.5,341.5C 226.686,339.369 226.186,337.036 226,334.5C 224.736,332.393 222.903,331.393 220.5,331.5C 220.5,328.833 220.5,326.167 220.5,323.5 Z"/></g>
<g><path style="opacity:0.612" fill="#939699" d="M 342.5,337.5 C 346.163,340.509 347.163,344.176 345.5,348.5C 345.5,344.507 344.5,340.841 342.5,337.5 Z"/></g>
<g><path style="opacity:1" fill="#924826" d="M 288.5,335.5 C 294.551,346.088 300.884,346.088 307.5,335.5C 309.384,336.693 309.884,338.359 309,340.5C 306.14,342.887 302.973,344.553 299.5,345.5C 298.432,344.566 297.099,344.232 295.5,344.5C 295.737,345.791 295.404,346.791 294.5,347.5C 294.5,346.5 294.5,345.5 294.5,344.5C 290.08,344.46 287.413,342.294 286.5,338C 286.684,336.624 287.351,335.791 288.5,335.5 Z"/></g>
<g><path style="opacity:1" fill="#a25126" d="M 335.5,337.5 C 331.486,337.334 327.486,337.501 323.5,338C 327.446,338.878 331.279,340.045 335,341.5C 335.667,344.167 335.667,346.833 335,349.5C 334.184,350.823 333.017,351.489 331.5,351.5C 336.663,343.179 334.33,339.846 324.5,341.5C 326.386,342.406 328.22,343.406 330,344.5C 330.725,346.157 330.225,347.157 328.5,347.5C 328.5,346.5 328.5,345.5 328.5,344.5C 324.721,344.53 321.221,343.53 318,341.5C 313.843,343.65 309.677,345.816 305.5,348C 303.288,348.789 301.288,348.622 299.5,347.5C 301.199,347.66 302.866,347.494 304.5,347C 310.877,342.811 317.544,339.145 324.5,336C 328.477,335.121 332.144,335.621 335.5,337.5 Z"/></g>
<g><path style="opacity:1" fill="#9e5026" d="M 220.5,356.5 C 220.918,355.778 221.584,355.278 222.5,355C 220.292,354.809 218.292,354.309 216.5,353.5C 214.692,352.082 214.025,350.082 214.5,347.5C 212.512,347.827 210.512,348.16 208.5,348.5C 205.64,348.445 203.307,347.445 201.5,345.5C 204.113,346.435 206.779,346.602 209.5,346C 206.08,344.254 202.913,342.087 200,339.5C 199.243,336.086 200.41,335.086 203.5,336.5C 205.71,342.288 209.71,343.955 215.5,341.5C 217.543,340.421 218.876,338.754 219.5,336.5C 220.689,335.571 222.022,335.238 223.5,335.5C 223.657,336.873 223.49,338.207 223,339.5C 220.305,341.694 217.472,343.694 214.5,345.5C 218.377,345.623 222.211,345.623 226,345.5C 227.294,350.913 225.461,354.58 220.5,356.5 Z"/></g>
<g><path style="opacity:1" fill="#934c26" d="M 335.5,337.5 C 338.091,338.254 339.924,339.921 341,342.5C 341.495,345.531 341.329,348.531 340.5,351.5C 340.167,351.5 339.833,351.5 339.5,351.5C 339.665,348.15 339.498,344.817 339,341.5C 337.373,340.468 336.207,339.134 335.5,337.5 Z"/></g>
<g><path style="opacity:1" fill="#1d0a04" d="M 331.5,351.5 C 330.167,351.5 328.833,351.5 327.5,351.5C 327.433,350.041 327.766,348.708 328.5,347.5C 330.225,347.157 330.725,346.157 330,344.5C 328.22,343.406 326.386,342.406 324.5,341.5C 334.33,339.846 336.663,343.179 331.5,351.5 Z"/></g>
<g><path style="opacity:1" fill="#ae5425" d="M 193.5,340.5 C 190.564,339.594 187.564,338.928 184.5,338.5C 184.715,340.179 184.048,341.179 182.5,341.5C 182.5,340.5 182.5,339.5 182.5,338.5C 175.62,337.876 172.786,340.876 174,347.5C 175.258,350.055 177.091,350.722 179.5,349.5C 175.218,346.059 175.551,343.392 180.5,341.5C 179.645,342.531 178.978,343.697 178.5,345C 181.371,348.291 181.037,351.291 177.5,354C 181.312,355.769 184.979,357.602 188.5,359.5C 179.881,359.083 173.047,355.417 168,348.5C 166.741,339.694 170.574,335.361 179.5,335.5C 184.985,335.215 189.652,336.881 193.5,340.5 Z"/></g>
<g><path style="opacity:1" fill="#1d0b05" d="M 182.5,341.5 C 181.833,341.5 181.167,341.5 180.5,341.5C 175.551,343.392 175.218,346.059 179.5,349.5C 177.091,350.722 175.258,350.055 174,347.5C 172.786,340.876 175.62,337.876 182.5,338.5C 182.5,339.5 182.5,340.5 182.5,341.5 Z"/></g>
<g><path style="opacity:1" fill="#120408" d="M 216.5,353.5 C 214.913,349.082 216.58,347.415 221.5,348.5C 222.167,352.5 220.5,354.167 216.5,353.5 Z"/></g>
<g><path style="opacity:1" fill="#ab5629" d="M 293.5,347.5 C 293.5,348.5 293.5,349.5 293.5,350.5C 295.225,350.843 295.725,351.843 295,353.5C 290.195,355.47 290.361,356.803 295.5,357.5C 296.246,358.736 296.579,360.07 296.5,361.5C 293.287,361.81 290.287,361.477 287.5,360.5C 290.187,360.664 292.854,360.497 295.5,360C 291.449,359.074 287.616,357.574 284,355.5C 282.876,352.558 282.542,349.558 283,346.5C 283.725,345.941 284.558,345.608 285.5,345.5C 288.022,346.762 290.689,347.429 293.5,347.5 Z"/></g>
<g><path style="opacity:1" fill="#c95b1f" d="M 193.5,340.5 C 196.149,342.14 198.816,343.807 201.5,345.5C 203.307,347.445 205.64,348.445 208.5,348.5C 210.512,348.16 212.512,347.827 214.5,347.5C 214.025,350.082 214.692,352.082 216.5,353.5C 218.292,354.309 220.292,354.809 222.5,355C 221.584,355.278 220.918,355.778 220.5,356.5C 218.26,357.264 215.927,358.098 213.5,359C 216.988,360.716 220.488,360.549 224,358.5C 224.667,359.833 224.667,361.167 224,362.5C 213.729,367.009 202.896,368.675 191.5,367.5C 193.6,366.17 195.6,364.67 197.5,363C 195.316,359.955 192.316,358.789 188.5,359.5C 184.979,357.602 181.312,355.769 177.5,354C 181.037,351.291 181.371,348.291 178.5,345C 178.978,343.697 179.645,342.531 180.5,341.5C 181.167,341.5 181.833,341.5 182.5,341.5C 184.048,341.179 184.715,340.179 184.5,338.5C 187.564,338.928 190.564,339.594 193.5,340.5 Z"/></g>
<g><path style="opacity:1" fill="#c55b21" d="M 335.5,337.5 C 336.207,339.134 337.373,340.468 339,341.5C 339.498,344.817 339.665,348.15 339.5,351.5C 336.392,353.895 333.058,356.062 329.5,358C 323.789,359.234 318.456,361.234 313.5,364C 316.888,364.659 320.221,364.492 323.5,363.5C 327.906,363.252 332.24,362.585 336.5,361.5C 336.5,362.5 336.5,363.5 336.5,364.5C 334.697,365.046 333.03,365.88 331.5,367C 318.167,367.667 304.833,367.667 291.5,367C 289.365,365.619 287.032,364.619 284.5,364C 283.62,362.644 283.286,361.144 283.5,359.5C 285.099,359.232 286.432,359.566 287.5,360.5C 290.287,361.477 293.287,361.81 296.5,361.5C 296.579,360.07 296.246,358.736 295.5,357.5C 290.361,356.803 290.195,355.47 295,353.5C 295.725,351.843 295.225,350.843 293.5,350.5C 293.5,349.5 293.5,348.5 293.5,347.5C 293.833,347.5 294.167,347.5 294.5,347.5C 295.404,346.791 295.737,345.791 295.5,344.5C 297.099,344.232 298.432,344.566 299.5,345.5C 299.5,346.167 299.5,346.833 299.5,347.5C 301.288,348.622 303.288,348.789 305.5,348C 309.677,345.816 313.843,343.65 318,341.5C 321.221,343.53 324.721,344.53 328.5,344.5C 328.5,345.5 328.5,346.5 328.5,347.5C 327.766,348.708 327.433,350.041 327.5,351.5C 328.833,351.5 330.167,351.5 331.5,351.5C 333.017,351.489 334.184,350.823 335,349.5C 335.667,346.833 335.667,344.167 335,341.5C 331.279,340.045 327.446,338.878 323.5,338C 327.486,337.501 331.486,337.334 335.5,337.5 Z"/></g>
<g><path style="opacity:0.208" fill="#b0b3b1" d="M 167.5,356.5 C 166.781,358.764 166.448,361.097 166.5,363.5C 165.853,362.726 165.52,361.726 165.5,360.5C 165.34,358.645 166.007,357.312 167.5,356.5 Z"/></g>
<g><path style="opacity:1" fill="#9f5028" d="M 175.5,360.5 C 174.503,360.47 173.836,360.97 173.5,362C 175.664,364.662 178.498,365.829 182,365.5C 183.986,365.431 185.486,364.765 186.5,363.5C 189.518,363.665 192.518,363.498 195.5,363C 193.075,361.787 190.741,360.621 188.5,359.5C 192.316,358.789 195.316,359.955 197.5,363C 195.6,364.67 193.6,366.17 191.5,367.5C 186.113,367.595 180.78,367.095 175.5,366C 172.307,364.974 170.974,362.808 171.5,359.5C 173.099,359.232 174.432,359.566 175.5,360.5 Z"/></g>
<g><path style="opacity:1" fill="#cb5d21" d="M 175.5,360.5 C 178.505,362.277 181.838,363.277 185.5,363.5C 185.833,363.5 186.167,363.5 186.5,363.5C 185.486,364.765 183.986,365.431 182,365.5C 178.498,365.829 175.664,364.662 173.5,362C 173.836,360.97 174.503,360.47 175.5,360.5 Z"/></g>
<g><path style="opacity:1" fill="#6f3618" d="M 175.5,360.5 C 179.162,360.723 182.495,361.723 185.5,363.5C 181.838,363.277 178.505,362.277 175.5,360.5 Z"/></g>
<g><path style="opacity:1" fill="#4e4d4e" d="M 235.5,365.5 C 234.008,368.323 231.674,369.99 228.5,370.5C 229.23,369.288 230.23,368.288 231.5,367.5C 230.975,366.808 230.308,366.308 229.5,366C 231,363.833 232.167,364 233,366.5C 233.671,365.748 234.504,365.414 235.5,365.5 Z"/></g>
<g><path style="opacity:0.333" fill="#9da2a1" d="M 167.5,365.5 C 169.027,365.427 170.027,366.094 170.5,367.5C 168.973,367.573 167.973,366.906 167.5,365.5 Z"/></g>
<g><path style="opacity:0.812" fill="#767676" d="M 275.5,368.5 C 278.213,370.172 280.88,371.838 283.5,373.5C 279.87,373.299 277.203,371.632 275.5,368.5 Z"/></g>
<g><path style="opacity:1" fill="#1e1a19" d="M 288.5,327.5 C 289.926,328.802 291.259,330.302 292.5,332C 290.456,332.498 289.122,333.665 288.5,335.5C 287.351,335.791 286.684,336.624 286.5,338C 287.413,342.294 290.08,344.46 294.5,344.5C 294.5,345.5 294.5,346.5 294.5,347.5C 294.167,347.5 293.833,347.5 293.5,347.5C 290.689,347.429 288.022,346.762 285.5,345.5C 284.558,345.608 283.725,345.941 283,346.5C 282.542,349.558 282.876,352.558 284,355.5C 287.616,357.574 291.449,359.074 295.5,360C 292.854,360.497 290.187,360.664 287.5,360.5C 286.432,359.566 285.099,359.232 283.5,359.5C 283.286,361.144 283.62,362.644 284.5,364C 287.032,364.619 289.365,365.619 291.5,367C 304.833,367.667 318.167,367.667 331.5,367C 333.03,365.88 334.697,365.046 336.5,364.5C 338.104,363.713 338.771,362.38 338.5,360.5C 333.185,360.508 328.185,361.508 323.5,363.5C 320.221,364.492 316.888,364.659 313.5,364C 318.456,361.234 323.789,359.234 329.5,358C 333.058,356.062 336.392,353.895 339.5,351.5C 339.833,351.5 340.167,351.5 340.5,351.5C 341.833,351.5 343.167,351.5 344.5,351.5C 344.263,350.209 344.596,349.209 345.5,348.5C 345.539,351.81 344.206,354.476 341.5,356.5C 344.297,360.564 343.964,364.398 340.5,368C 339.552,368.483 338.552,368.649 337.5,368.5C 335.847,368.66 334.514,369.326 333.5,370.5C 329.76,368.884 326.76,369.551 324.5,372.5C 310.883,374.711 297.216,375.044 283.5,373.5C 280.88,371.838 278.213,370.172 275.5,368.5C 273.453,363.024 274.786,358.357 279.5,354.5C 276.457,350.019 276.957,346.019 281,342.5C 280.326,336.337 282.826,332.17 288.5,330C 287.402,329.23 287.402,328.397 288.5,327.5 Z"/></g>
<g><path style="opacity:1" fill="#7e4323" d="M 336.5,364.5 C 336.5,363.5 336.5,362.5 336.5,361.5C 332.24,362.585 327.906,363.252 323.5,363.5C 328.185,361.508 333.185,360.508 338.5,360.5C 338.771,362.38 338.104,363.713 336.5,364.5 Z"/></g>
<g><path style="opacity:1" fill="#18080a" d="M 293.5,350.5 C 293.5,351.5 293.5,352.5 293.5,353.5C 291.5,353.5 289.5,353.5 287.5,353.5C 287.5,351.833 287.5,350.167 287.5,348.5C 289.858,348.253 291.858,348.919 293.5,350.5 Z"/></g>
<g><path style="opacity:0.247" fill="#aeaeaf" d="M 337.5,368.5 C 336.713,370.104 335.38,370.771 333.5,370.5C 334.514,369.326 335.847,368.66 337.5,368.5 Z"/></g>
<g><path style="opacity:0.965" fill="#5a5b5a" d="M 333.5,370.5 C 330.829,372.118 327.829,372.785 324.5,372.5C 326.76,369.551 329.76,368.884 333.5,370.5 Z"/></g>
<g><path style="opacity:0.149" fill="#e6e6e6" d="M 179.5,371.5 C 181.099,371.232 182.432,371.566 183.5,372.5C 183.565,372.938 183.399,373.272 183,373.5C 181.698,372.915 180.531,372.249 179.5,371.5 Z"/></g>
<g><path style="opacity:0.404" fill="#a4a4a4" d="M 122.5,393.5 C 127.65,392.349 132.984,392.183 138.5,393C 139.823,393.816 140.489,394.983 140.5,396.5C 139.373,395.878 138.373,395.045 137.5,394C 132.511,393.501 127.511,393.334 122.5,393.5 Z"/></g>
<g><path style="opacity:0.48" fill="#979797" d="M 151.5,393.5 C 152.449,392.848 153.615,392.514 155,392.5C 156.681,392.608 157.848,393.275 158.5,394.5C 156.283,393.631 153.95,393.298 151.5,393.5 Z"/></g>
<g><path style="opacity:0.188" fill="#c1c1c1" d="M 167.5,393.5 C 170.304,392.362 173.304,392.195 176.5,393C 177.252,393.671 177.586,394.504 177.5,395.5C 174.495,393.701 171.162,393.034 167.5,393.5 Z"/></g>
<g><path style="opacity:0.498" fill="#a0a0a0" d="M 199.5,393.5 C 195.102,393.294 190.768,393.627 186.5,394.5C 186.611,393.883 186.944,393.383 187.5,393C 191.689,392.188 195.689,392.355 199.5,393.5 Z"/></g>
<g><path style="opacity:0.063" fill="#c8c8c8" d="M 202.5,393.5 C 203.919,392.549 205.585,392.216 207.5,392.5C 207.795,394.735 207.461,396.735 206.5,398.5C 206.5,396.833 206.5,395.167 206.5,393.5C 205.167,393.5 203.833,393.5 202.5,393.5 Z"/></g>
<g><path style="opacity:0.254" fill="#a2a2a2" d="M 238.5,395.5 C 237.711,395.217 237.044,394.717 236.5,394C 232.667,393.833 228.833,393.667 225,393.5C 220.771,393.51 216.938,394.177 213.5,395.5C 212.596,394.791 212.263,393.791 212.5,392.5C 220.84,392.334 229.173,392.5 237.5,393C 238.252,393.671 238.586,394.504 238.5,395.5 Z"/></g>
<g><path style="opacity:0.223" fill="#adadad" d="M 283.5,394.5 C 276.963,393.226 270.296,393.226 263.5,394.5C 263.611,393.883 263.944,393.383 264.5,393C 271.192,392.169 277.858,392.336 284.5,393.5C 284.376,394.107 284.043,394.44 283.5,394.5 Z"/></g>
<g><path style="opacity:0.124" fill="#bdbdbd" d="M 362.5,407.5 C 361.514,403.03 361.181,398.363 361.5,393.5C 353.097,392.866 345.097,393.533 337.5,395.5C 336.596,394.791 336.263,393.791 336.5,392.5C 345.173,392.334 353.84,392.5 362.5,393C 362.609,397.622 362.609,402.455 362.5,407.5 Z"/></g>
<g><path style="opacity:0.122" fill="#b2b2b2" d="M 392.5,394.5 C 388.581,393.865 384.581,393.532 380.5,393.5C 376.435,393.511 372.768,394.178 369.5,395.5C 368.596,394.791 368.263,393.791 368.5,392.5C 376.903,391.866 384.903,392.533 392.5,394.5 Z"/></g>
<g><path style="opacity:0.678" fill="#999999" d="M 166.5,393.5 C 165.5,393.5 164.5,393.5 163.5,393.5C 163.5,394.5 163.5,395.5 163.5,396.5C 160.522,394.457 160.855,393.124 164.5,392.5C 165.416,392.543 166.083,392.876 166.5,393.5 Z"/></g>
<g><path style="opacity:1" fill="#171717" d="M 199.5,393.5 C 200.5,393.5 201.5,393.5 202.5,393.5C 203.833,393.5 205.167,393.5 206.5,393.5C 206.5,395.167 206.5,396.833 206.5,398.5C 206.64,400.124 205.973,401.29 204.5,402C 200.745,402.755 197.078,402.589 193.5,401.5C 191.393,400.532 189.059,400.198 186.5,400.5C 186.5,398.5 186.5,396.5 186.5,394.5C 190.768,393.627 195.102,393.294 199.5,393.5 Z"/></g>
<g><path style="opacity:0.318" fill="#a6a6a6" d="M 392.5,394.5 C 393.906,394.973 394.573,395.973 394.5,397.5C 393.094,397.027 392.427,396.027 392.5,394.5 Z"/></g>
<g><path style="opacity:0.075" fill="#c2c2c2" d="M 303.5,395.5 C 302.833,396.833 301.833,397.833 300.5,398.5C 300.5,396.5 301.5,395.5 303.5,395.5 Z"/></g>
<g><path style="opacity:0.173" fill="#adadad" d="M 119.5,396.5 C 119.573,398.027 118.906,399.027 117.5,399.5C 117.427,397.973 118.094,396.973 119.5,396.5 Z"/></g>
<g><path style="opacity:0.557" fill="#999999" d="M 322.5,399.5 C 324.048,399.821 324.715,400.821 324.5,402.5C 323.599,401.71 322.932,400.71 322.5,399.5 Z"/></g>
<g><path style="opacity:0.99" fill="#141414" d="M 392.5,394.5 C 392.427,396.027 393.094,397.027 394.5,397.5C 396.556,401.635 396.889,405.968 395.5,410.5C 392.013,411.483 390.68,413.817 391.5,417.5C 389.821,417.715 388.821,417.048 388.5,415.5C 388.5,413.5 388.5,411.5 388.5,409.5C 388.889,406.447 388.223,403.78 386.5,401.5C 385.512,400.205 384.512,398.872 383.5,397.5C 382.903,396.861 382.07,396.528 381,396.5C 379.624,396.684 378.791,397.351 378.5,398.5C 376.993,402.391 376.326,406.558 376.5,411C 376.502,414.021 376.836,416.854 377.5,419.5C 377.5,419.833 377.5,420.167 377.5,420.5C 377.263,421.791 377.596,422.791 378.5,423.5C 379.295,426.423 380.628,429.09 382.5,431.5C 378.893,432.489 375.226,432.823 371.5,432.5C 370.701,429.57 370.368,426.57 370.5,423.5C 370.752,414.127 370.418,404.793 369.5,395.5C 372.768,394.178 376.435,393.511 380.5,393.5C 384.581,393.532 388.581,393.865 392.5,394.5 Z"/></g>
<g><path style="opacity:0.059" fill="#d2d2d2" d="M 383.5,397.5 C 381.708,397.366 380.042,397.699 378.5,398.5C 380.042,397.699 381.708,397.366 383.5,397.5 Z"/></g>
<g><path style="opacity:0.551" fill="#626262" d="M 300.5,399.5 C 300.646,403.519 300.979,407.519 301.5,411.5C 299.511,407.598 299.177,403.598 300.5,399.5 Z"/></g>
<g><path style="opacity:0.173" fill="#b7b7b7" d="M 169.5,399.5 C 171.104,400.287 171.771,401.62 171.5,403.5C 170.326,402.486 169.66,401.153 169.5,399.5 Z"/></g>
<g><path style="opacity:0.997" fill="#242424" d="M 325.5,421.5 C 323.97,422.067 322.47,422.733 321,423.5C 320.667,422.833 320.333,422.167 320,421.5C 315.767,427.275 314.601,426.608 316.5,419.5C 317.417,418.873 318.417,418.539 319.5,418.5C 321.153,419.799 322.653,419.466 324,417.5C 324.494,415.866 324.66,414.199 324.5,412.5C 324.5,409.167 324.5,405.833 324.5,402.5C 324.715,400.821 324.048,399.821 322.5,399.5C 320.063,399.244 317.729,398.577 315.5,397.5C 314.167,395.833 314.167,394.167 315.5,392.5C 319.777,392.921 324.11,393.088 328.5,393C 329.667,393.5 330.5,394.333 331,395.5C 331.762,404.715 329.929,413.381 325.5,421.5 Z"/></g>
<g><path style="opacity:0.235" fill="#adadad" d="M 265.5,404.5 C 267.153,404.66 268.486,405.326 269.5,406.5C 267.62,406.771 266.287,406.104 265.5,404.5 Z"/></g>
<g><path style="opacity:0.995" fill="#202020" d="M 151.5,393.5 C 153.95,393.298 156.283,393.631 158.5,394.5C 160.658,401.299 161.658,408.299 161.5,415.5C 161.259,417.898 161.926,419.898 163.5,421.5C 163.326,424.763 161.659,426.43 158.5,426.5C 158.657,425.127 158.49,423.793 158,422.5C 157.79,424.058 157.29,425.391 156.5,426.5C 154.817,418.247 153.317,409.913 152,401.5C 150.93,398.758 149.43,396.258 147.5,394C 148.682,392.232 150.015,392.065 151.5,393.5 Z"/></g>
<g><path style="opacity:0.999" fill="#1f1f1f" d="M 166.5,393.5 C 166.833,393.5 167.167,393.5 167.5,393.5C 171.162,393.034 174.495,393.701 177.5,395.5C 178.807,401.671 178.141,407.671 175.5,413.5C 174.778,413.918 174.278,414.584 174,415.5C 173.03,415.376 172.197,415.376 171.5,415.5C 171.5,413.833 171.5,412.167 171.5,410.5C 171.5,408.167 171.5,405.833 171.5,403.5C 171.771,401.62 171.104,400.287 169.5,399.5C 166.911,399.539 164.911,398.539 163.5,396.5C 163.5,395.5 163.5,394.5 163.5,393.5C 164.5,393.5 165.5,393.5 166.5,393.5 Z"/></g>
<g><path style="opacity:0.321" fill="#9a9a9a" d="M 378.5,398.5 C 377.71,405.471 377.377,412.471 377.5,419.5C 376.836,416.854 376.502,414.021 376.5,411C 376.326,406.558 376.993,402.391 378.5,398.5 Z"/></g>
<g><path style="opacity:0.012" fill="#bfbfbf" d="M 386.5,401.5 C 388.223,403.78 388.889,406.447 388.5,409.5C 387.469,407.039 386.802,404.373 386.5,401.5 Z"/></g>
<g><path style="opacity:0.983" fill="#171717" d="M 201.5,414.5 C 197.034,414.844 193.034,413.677 189.5,411C 190.416,410.722 191.082,410.222 191.5,409.5C 194.836,409.533 198.003,408.866 201,407.5C 202.728,409.819 202.895,412.153 201.5,414.5 Z"/></g>
<g><path style="opacity:0.827" fill="#7d7d7d" d="M 262.5,410.5 C 264.749,411.08 266.415,412.413 267.5,414.5C 265.251,413.92 263.585,412.587 262.5,410.5 Z"/></g>
<g><path style="opacity:1" fill="#383838" d="M 186.5,394.5 C 186.5,396.5 186.5,398.5 186.5,400.5C 189.059,400.198 191.393,400.532 193.5,401.5C 190.359,400.908 188.026,401.908 186.5,404.5C 187.214,407.214 188.881,408.881 191.5,409.5C 191.082,410.222 190.416,410.722 189.5,411C 193.034,413.677 197.034,414.844 201.5,414.5C 197.55,415.708 193.55,415.375 189.5,413.5C 188.261,413.942 187.261,414.609 186.5,415.5C 186.36,413.876 187.027,412.71 188.5,412C 186.413,411.208 184.579,410.041 183,408.5C 182.617,409.056 182.117,409.389 181.5,409.5C 181.547,406.432 182.047,403.432 183,400.5C 183.424,397.975 184.59,395.975 186.5,394.5 Z"/></g>
<g><path style="opacity:0.993" fill="#262626" d="M 303.5,395.5 C 301.5,395.5 300.5,396.5 300.5,398.5C 300.5,398.833 300.5,399.167 300.5,399.5C 299.177,403.598 299.511,407.598 301.5,411.5C 302.283,413.343 302.95,415.343 303.5,417.5C 303.957,418.298 304.624,418.631 305.5,418.5C 306.117,418.389 306.617,418.056 307,417.5C 308.009,419.025 308.509,420.692 308.5,422.5C 306.604,427.4 303.271,431.066 298.5,433.5C 297.914,433.291 297.414,432.957 297,432.5C 295.835,421.341 293.835,410.341 291,399.5C 290.028,397.695 288.861,396.028 287.5,394.5C 287.833,393.5 288.5,392.833 289.5,392.5C 293.124,393.514 296.79,393.514 300.5,392.5C 301.833,392.667 303.167,392.833 304.5,393C 305.883,394.461 305.549,395.294 303.5,395.5 Z"/></g>
<g><path style="opacity:0.996" fill="#1c1c1c" d="M 238.5,395.5 C 239.205,405.122 238.872,414.789 237.5,424.5C 237.081,427.325 238.081,429.491 240.5,431C 239.263,431.232 238.263,431.732 237.5,432.5C 234.606,432.958 232.106,432.291 230,430.5C 229.377,422.601 229.877,414.767 231.5,407C 231.375,404.449 231.042,401.949 230.5,399.5C 230.315,397.11 228.982,396.11 226.5,396.5C 224.018,396.11 222.685,397.11 222.5,399.5C 221.69,407.155 221.523,414.822 222,422.5C 222.116,425.932 223.283,428.932 225.5,431.5C 225.192,432.308 224.692,432.975 224,433.5C 220.606,432.544 217.106,432.211 213.5,432.5C 213.993,430.194 214.326,427.861 214.5,425.5C 214.784,415.448 214.45,405.448 213.5,395.5C 216.938,394.177 220.771,393.51 225,393.5C 228.833,393.667 232.667,393.833 236.5,394C 237.044,394.717 237.711,395.217 238.5,395.5 Z"/></g>
<g><path style="opacity:0.039" fill="#d7d7d7" d="M 230.5,399.5 C 227.833,396.833 225.167,396.833 222.5,399.5C 222.685,397.11 224.018,396.11 226.5,396.5C 228.982,396.11 230.315,397.11 230.5,399.5 Z"/></g>
<g><path style="opacity:0.698" fill="#8f8f8f" d="M 171.5,410.5 C 171.5,412.167 171.5,413.833 171.5,415.5C 170.833,416.167 170.167,416.833 169.5,417.5C 169.721,414.933 170.388,412.599 171.5,410.5 Z"/></g>
<g><path style="opacity:0.999" fill="#1b1b1b" d="M 122.5,393.5 C 127.511,393.334 132.511,393.501 137.5,394C 138.373,395.045 139.373,395.878 140.5,396.5C 143.285,400.456 144.619,404.956 144.5,410C 144.722,415.126 143.389,419.626 140.5,423.5C 139.167,424.167 138.167,425.167 137.5,426.5C 137.167,427.5 136.5,428.167 135.5,428.5C 133.973,428.427 132.973,429.094 132.5,430.5C 132.038,431.88 131.038,432.547 129.5,432.5C 126.433,432.272 124.1,430.939 122.5,428.5C 122.144,426.81 121.144,425.81 119.5,425.5C 117.864,424.251 116.697,422.584 116,420.5C 113.782,413.262 114.282,406.262 117.5,399.5C 118.906,399.027 119.573,398.027 119.5,396.5C 119.856,394.81 120.856,393.81 122.5,393.5 Z M 136.5,405.5 C 137.295,409.785 137.628,414.119 137.5,418.5C 136.077,424.054 133.077,425.388 128.5,422.5C 125.391,419.271 123.058,415.605 121.5,411.5C 121.5,410.833 121.5,410.167 121.5,409.5C 121.616,406.14 121.949,402.807 122.5,399.5C 129.096,396.454 133.762,398.454 136.5,405.5 Z"/></g>
<g><path style="opacity:0.086" fill="#b0b0b0" d="M 136.5,405.5 C 138.033,407.634 138.7,410.134 138.5,413C 138.494,415.033 138.161,416.866 137.5,418.5C 137.628,414.119 137.295,409.785 136.5,405.5 Z"/></g>
<g><path style="opacity:0.996" fill="#383838" d="M 121.5,411.5 C 123.058,415.605 125.391,419.271 128.5,422.5C 126.372,421.043 124.038,420.043 121.5,419.5C 120.871,417.014 119.871,414.681 118.5,412.5C 118.667,411.5 118.833,410.5 119,409.5C 119.202,411.256 119.702,412.922 120.5,414.5C 121.386,413.675 121.719,412.675 121.5,411.5 Z"/></g>
<g><path style="opacity:0.196" fill="#bdbdbd" d="M 122.5,399.5 C 121.949,402.807 121.616,406.14 121.5,409.5C 120.135,406.041 120.469,402.708 122.5,399.5 Z"/></g>
<g><path style="opacity:0.722" fill="#8e8e8e" d="M 270.5,416.5 C 272.833,416.833 274.167,418.167 274.5,420.5C 272.833,419.5 271.5,418.167 270.5,416.5 Z"/></g>
<g><path style="opacity:0.647" fill="#949494" d="M 186.5,416.5 C 188.5,417.833 190.167,419.5 191.5,421.5C 188.833,420.833 187.167,419.167 186.5,416.5 Z"/></g>
<g><path style="opacity:1" fill="#1f1f1f" d="M 283.5,394.5 C 283.451,397.099 282.451,399.266 280.5,401C 275.117,401.225 269.783,400.725 264.5,399.5C 264.629,401.216 264.962,402.883 265.5,404.5C 266.287,406.104 267.62,406.771 269.5,406.5C 274.885,408.184 279.552,410.851 283.5,414.5C 283.628,418.881 283.295,423.215 282.5,427.5C 280.317,430.582 277.317,432.582 273.5,433.5C 272.264,432.754 270.93,432.421 269.5,432.5C 268.933,430.97 268.267,429.47 267.5,428C 269.81,427.503 272.143,427.337 274.5,427.5C 274.5,426.5 274.5,425.5 274.5,424.5C 274.5,423.167 274.5,421.833 274.5,420.5C 274.167,418.167 272.833,416.833 270.5,416.5C 269.29,416.068 268.29,415.401 267.5,414.5C 266.415,412.413 264.749,411.08 262.5,410.5C 260.172,408.834 259.172,406.501 259.5,403.5C 259.507,399.826 260.84,396.826 263.5,394.5C 270.296,393.226 276.963,393.226 283.5,394.5 Z"/></g>
<g><path style="opacity:0.38" fill="#a9a9a9" d="M 283.5,414.5 C 284.161,416.134 284.494,417.967 284.5,420C 284.7,422.866 284.033,425.366 282.5,427.5C 283.295,423.215 283.628,418.881 283.5,414.5 Z"/></g>
<g><path style="opacity:0.984" fill="#4c4c4c" d="M 308.5,411.5 C 308.986,413.807 308.986,415.973 308.5,418C 309.737,418.232 310.737,418.732 311.5,419.5C 310.272,420.306 309.272,421.306 308.5,422.5C 308.509,420.692 308.009,419.025 307,417.5C 306.617,418.056 306.117,418.389 305.5,418.5C 306.264,415.982 307.264,413.649 308.5,411.5 Z"/></g>
<g><path style="opacity:0.788" fill="#848484" d="M 161.5,415.5 C 162.738,417.214 163.405,419.214 163.5,421.5C 161.926,419.898 161.259,417.898 161.5,415.5 Z"/></g>
<g><path style="opacity:0.482" fill="#7b7b7b" d="M 324.5,412.5 C 324.66,414.199 324.494,415.866 324,417.5C 322.653,419.466 321.153,419.799 319.5,418.5C 319.5,418.167 319.5,417.833 319.5,417.5C 320.117,417.611 320.617,417.944 321,418.5C 322.75,416.743 323.916,414.743 324.5,412.5 Z"/></g>
<g><path style="opacity:0.078" fill="#dedede" d="M 379.5,419.5 C 379.5,420.167 379.5,420.833 379.5,421.5C 378.662,421.842 378.328,422.508 378.5,423.5C 377.596,422.791 377.263,421.791 377.5,420.5C 378.167,420.167 378.833,419.833 379.5,419.5 Z"/></g>
<g><path style="opacity:0.99" fill="#272727" d="M 175.5,413.5 C 172.713,422.79 166.879,429.457 158,433.5C 156.648,431.406 156.148,429.073 156.5,426.5C 157.29,425.391 157.79,424.058 158,422.5C 158.49,423.793 158.657,425.127 158.5,426.5C 161.659,426.43 163.326,424.763 163.5,421.5C 166.318,421.343 168.318,420.009 169.5,417.5C 170.167,416.833 170.833,416.167 171.5,415.5C 172.197,415.376 173.03,415.376 174,415.5C 174.278,414.584 174.778,413.918 175.5,413.5 Z"/></g>
<g><path style="opacity:0.996" fill="#1a1a1a" d="M 186.5,415.5 C 186.5,415.833 186.5,416.167 186.5,416.5C 187.167,419.167 188.833,420.833 191.5,421.5C 193.5,422.167 195.5,422.833 197.5,423.5C 201.546,425.2 205.213,424.534 208.5,421.5C 209.645,423.953 209.312,426.287 207.5,428.5C 205.973,428.427 204.973,429.094 204.5,430.5C 202.891,431.771 201.058,432.771 199,433.5C 185.2,431.633 179.367,423.633 181.5,409.5C 182.117,409.389 182.617,409.056 183,408.5C 184.579,410.041 186.413,411.208 188.5,412C 187.027,412.71 186.36,413.876 186.5,415.5 Z"/></g>
<g><path style="opacity:0.998" fill="#212121" d="M 319.5,417.5 C 319.5,417.833 319.5,418.167 319.5,418.5C 318.417,418.539 317.417,418.873 316.5,419.5C 314.601,426.608 315.767,427.275 320,421.5C 320.333,422.167 320.667,422.833 321,423.5C 322.47,422.733 323.97,422.067 325.5,421.5C 325.852,433.402 322.352,435.069 315,426.5C 313.82,424.14 312.653,421.807 311.5,419.5C 310.737,418.732 309.737,418.232 308.5,418C 308.986,415.973 308.986,413.807 308.5,411.5C 308.618,408.312 309.451,405.312 311,402.5C 311.718,401.549 312.551,401.383 313.5,402C 315.005,407.348 317.005,412.514 319.5,417.5 Z"/></g>
<g><path style="opacity:0.965" fill="#2f2f2f" d="M 395.5,410.5 C 394.734,417.705 390.901,422.371 384,424.5C 382.019,424.101 380.519,423.101 379.5,421.5C 379.5,420.833 379.5,420.167 379.5,419.5C 379.762,417.436 380.929,416.103 383,415.5C 383.196,417.286 384.029,418.619 385.5,419.5C 386.521,418.099 387.521,416.765 388.5,415.5C 388.821,417.048 389.821,417.715 391.5,417.5C 390.68,413.817 392.013,411.483 395.5,410.5 Z"/></g>
<g><path style="opacity:0.961" fill="#515151" d="M 208.5,421.5 C 205.213,424.534 201.546,425.2 197.5,423.5C 201.401,424.143 204.734,423.143 207.5,420.5C 208.107,420.624 208.44,420.957 208.5,421.5 Z"/></g>
<g><path style="opacity:0.004" fill="#d1d1d1" d="M 140.5,423.5 C 140.5,425.5 139.5,426.5 137.5,426.5C 138.167,425.167 139.167,424.167 140.5,423.5 Z"/></g>
<g><path style="opacity:1" fill="#383838" d="M 274.5,424.5 C 274.5,425.5 274.5,426.5 274.5,427.5C 272.143,427.337 269.81,427.503 267.5,428C 268.267,429.47 268.933,430.97 269.5,432.5C 262.363,430.856 260.863,427.189 265,421.5C 267.04,426.63 270.207,427.63 274.5,424.5 Z"/></g>
<g><path style="opacity:0.998" fill="#191919" d="M 362.5,407.5 C 363.496,414.459 364.163,421.459 364.5,428.5C 364.5,429.5 364.5,430.5 364.5,431.5C 360.818,431.665 357.152,431.499 353.5,431C 354.252,430.329 354.586,429.496 354.5,428.5C 355.617,423.808 355.617,419.141 354.5,414.5C 354,414.167 353.5,413.833 353,413.5C 350.349,415.164 347.516,415.664 344.5,415C 343.409,412.936 343.242,410.769 344,408.5C 344.561,407.978 345.228,407.645 346,407.5C 348.047,408.609 350.213,409.276 352.5,409.5C 353.822,409.67 354.989,409.337 356,408.5C 356.667,405.167 356.667,401.833 356,398.5C 355.329,397.748 354.496,397.414 353.5,397.5C 352.726,396.853 351.726,396.52 350.5,396.5C 348.645,396.34 347.312,397.007 346.5,398.5C 344.914,400.67 343.58,403.004 342.5,405.5C 341.778,405.918 341.278,406.584 341,407.5C 340.333,412.5 340.333,417.5 341,422.5C 341.383,423.056 341.883,423.389 342.5,423.5C 342.427,425.027 343.094,426.027 344.5,426.5C 345.492,426.328 346.158,426.662 346.5,427.5C 346.918,428.222 347.584,428.722 348.5,429C 346.937,429.759 345.937,430.926 345.5,432.5C 341.486,432.666 337.486,432.499 333.5,432C 334.191,430.933 334.691,429.766 335,428.5C 335.752,417.487 336.585,406.487 337.5,395.5C 345.097,393.533 353.097,392.866 361.5,393.5C 361.181,398.363 361.514,403.03 362.5,407.5 Z"/></g>
<g><path style="opacity:0.6" fill="#959595" d="M 342.5,423.5 C 343.906,423.973 344.573,424.973 344.5,426.5C 343.094,426.027 342.427,425.027 342.5,423.5 Z"/></g>
<g><path style="opacity:0.267" fill="#7f7f7f" d="M 342.5,405.5 C 341.167,411.5 341.167,417.5 342.5,423.5C 341.883,423.389 341.383,423.056 341,422.5C 340.333,417.5 340.333,412.5 341,407.5C 341.278,406.584 341.778,405.918 342.5,405.5 Z"/></g>
<g><path style="opacity:0.596" fill="#585858" d="M 353.5,397.5 C 354.496,397.414 355.329,397.748 356,398.5C 356.667,401.833 356.667,405.167 356,408.5C 354.989,409.337 353.822,409.67 352.5,409.5C 356.109,405.928 356.442,401.928 353.5,397.5 Z"/></g>
<g><path style="opacity:0.11" fill="#adadad" d="M 353.5,397.5 C 351.097,397.448 348.764,397.781 346.5,398.5C 347.312,397.007 348.645,396.34 350.5,396.5C 351.726,396.52 352.726,396.853 353.5,397.5 Z"/></g>
<g><path style="opacity:0.376" fill="#7e7e7e" d="M 119.5,425.5 C 121.144,425.81 122.144,426.81 122.5,428.5C 120.856,428.19 119.856,427.19 119.5,425.5 Z"/></g>
<g><path style="opacity:0.843" fill="#767676" d="M 237.5,424.5 C 239.241,426.924 240.575,429.59 241.5,432.5C 240.167,432.5 238.833,432.5 237.5,432.5C 238.263,431.732 239.263,431.232 240.5,431C 238.081,429.491 237.081,427.325 237.5,424.5 Z"/></g>
<g><path style="opacity:0.992" fill="#3f3f3f" d="M 346.5,427.5 C 347.833,427.5 349.167,427.5 350.5,427.5C 350.838,431.151 349.172,432.817 345.5,432.5C 345.937,430.926 346.937,429.759 348.5,429C 347.584,428.722 346.918,428.222 346.5,427.5 Z"/></g>
<g><path style="opacity:0.118" fill="#a6a6a6" d="M 135.5,428.5 C 135.027,429.906 134.027,430.573 132.5,430.5C 132.973,429.094 133.973,428.427 135.5,428.5 Z"/></g>
<g><path style="opacity:0.078" fill="#b2b2b2" d="M 207.5,428.5 C 207.027,429.906 206.027,430.573 204.5,430.5C 204.973,429.094 205.973,428.427 207.5,428.5 Z"/></g>
<g><path style="opacity:0.994" fill="#616161" d="M 370.5,423.5 C 370.368,426.57 370.701,429.57 371.5,432.5C 370.133,433.853 369.133,433.519 368.5,431.5C 369.08,428.689 369.746,426.023 370.5,423.5 Z"/></g>
<g><path style="opacity:0.796" fill="#797979" d="M 214.5,425.5 C 214.326,427.861 213.993,430.194 213.5,432.5C 212.922,433.547 212.256,433.38 211.5,432C 212.422,429.706 213.422,427.539 214.5,425.5 Z"/></g>
<g><path style="opacity:0.294" fill="#a2a2a2" d="M 354.5,428.5 C 354.586,429.496 354.252,430.329 353.5,431C 357.152,431.499 360.818,431.665 364.5,431.5C 364.5,430.5 364.5,429.5 364.5,428.5C 365.434,429.568 365.768,430.901 365.5,432.5C 361.167,432.5 356.833,432.5 352.5,432.5C 352.229,430.62 352.896,429.287 354.5,428.5 Z"/></g>
</svg>