<svg width="20" height="16" viewBox="0 0 20 16" fill="none" xmlns="http://www.w3.org/2000/svg">
<path d="M4.05399 14.6707C4.05399 14.9148 3.85863 15.1101 3.61443 15.1101H2.369C2.1248 15.1101 1.92944 14.9148 1.92944 14.6707C1.92944 14.4266 2.1248 14.2313 2.369 14.2313H3.63885C3.85863 14.2557 4.05399 14.4266 4.05399 14.6707Z" fill="#F9AA4B"/>
<path d="M15.824 14.6707C15.824 14.9148 16.0193 15.1101 16.2635 15.1101H17.5334C17.7776 15.1101 17.9729 14.9148 17.9729 14.6707C17.9729 14.4266 17.7776 14.2313 17.5334 14.2313H16.2635C16.0193 14.2557 15.824 14.4266 15.824 14.6707Z" fill="#F9AA4B"/>
<path d="M19.9756 13.5479C19.9756 13.9385 19.6581 14.2802 19.243 14.2802H0.732601C0.31746 14.2802 0 13.9385 0 13.5479V0.732319C0 0.341749 0.31746 0 0.732601 0H19.243C19.6581 0 19.9756 0.341749 19.9756 0.732319V13.5479Z" fill="#47C6CC"/>
<path d="M18.9499 13.5968H1.02564C0.46398 13.5968 0 13.1574 0 12.6203V13.255C0 13.8165 0.46398 14.2803 1.02564 14.2803H18.9744C19.536 14.2803 20 13.8165 20 13.255V12.6203C19.9756 13.1574 19.5116 13.5968 18.9499 13.5968Z" fill="#26A2BD"/>
<path d="M13.6512 11.7171C13.6512 12.1077 13.3337 12.4494 12.9186 12.4494H2.07611C1.66097 12.4494 1.34351 12.1077 1.34351 11.7171V2.58753C1.34351 2.19696 1.66097 1.85521 2.07611 1.85521H12.9186C13.3337 1.85521 13.6512 2.19696 13.6512 2.58753V11.7171Z" fill="#0E4F5C"/>
<path d="M3.1015 11.4242C2.68636 11.4242 2.3689 11.0824 2.3689 10.6919V3.58838C2.3689 3.19781 2.68636 2.85606 3.1015 2.85606H11.8927C12.3078 2.85606 12.6253 3.19781 12.6253 3.58838V10.6919C12.6253 11.0824 12.3078 11.4242 11.8927 11.4242H3.1015Z" fill="#F9AA4B"/>
<path d="M15.0424 11.3754C15.0424 11.5218 14.9203 11.6195 14.7982 11.6195C14.6516 11.6195 14.554 11.4974 14.554 11.3754V3.12458C14.554 2.97812 14.6761 2.88048 14.7982 2.88048C14.9447 2.88048 15.0424 3.00253 15.0424 3.12458V11.3754Z" fill="white"/>
<path d="M18.9009 3.27102C18.9009 4.05216 18.2659 4.71125 17.4601 4.71125C16.6786 4.71125 16.0193 4.07657 16.0193 3.27102C16.0193 2.48988 16.6542 1.8308 17.4601 1.8308C18.2659 1.85521 18.9009 2.48988 18.9009 3.27102Z" fill="white"/>
<path d="M17.4846 4.36955C16.8741 4.36955 16.3857 3.88134 16.3857 3.27107C16.3857 2.6608 16.8741 2.17259 17.4846 2.17259C18.0951 2.17259 18.5835 2.6608 18.5835 3.27107C18.5591 3.88134 18.0707 4.36955 17.4846 4.36955Z" fill="#F8472F"/>
<path d="M18.9009 6.90814C18.9009 7.68928 18.2659 8.34836 17.4601 8.34836C16.6786 8.34836 16.0193 7.71369 16.0193 6.90814C16.0193 6.127 16.6542 5.46791 17.4601 5.46791C18.2659 5.46791 18.9009 6.10259 18.9009 6.90814Z" fill="white"/>
<path d="M17.4846 7.98225C16.8741 7.98225 16.3857 7.49404 16.3857 6.88377C16.3857 6.27351 16.8741 5.78529 17.4846 5.78529C18.0951 5.78529 18.5835 6.27351 18.5835 6.88377C18.5591 7.49404 18.0707 7.98225 17.4846 7.98225Z" fill="#F8472F"/>
<path d="M17.4844 7.76258C16.8983 7.76258 16.4343 7.3476 16.4099 6.85939C16.4099 6.8838 16.4099 6.90821 16.4099 6.93262C16.4099 7.54289 16.8983 8.0311 17.5088 8.0311C18.1193 8.0311 18.6077 7.54289 18.6077 6.93262C18.6077 6.90821 18.6077 6.8838 18.6077 6.85939C18.5345 7.3476 18.0705 7.76258 17.4844 7.76258Z" fill="#F03118"/>
<path d="M17.4844 4.12541C16.8983 4.12541 16.4343 3.71043 16.4099 3.22221C16.4099 3.24662 16.4099 3.27104 16.4099 3.29545C16.4099 3.90571 16.8983 4.39392 17.5088 4.39392C18.1193 4.39392 18.6077 3.90571 18.6077 3.29545C18.6077 3.27104 18.6077 3.24662 18.6077 3.22221C18.5345 3.71043 18.0705 4.12541 17.4844 4.12541Z" fill="#F03118"/>
<path d="M18.9011 9.52014H16.0439V10.6186H18.9011V9.52014Z" fill="#FFC259"/>
<path d="M18.9011 11.4242H16.0439V12.5227H18.9011V11.4242Z" fill="#FFC259"/>
</svg>
